<?xml version="1.0" encoding="UTF-8"?> <svg xmlns="http://www.w3.org/2000/svg" width="80" height="80" viewBox="0 0 80 80" fill="none"><rect width="80" height="80" fill="#E8E8E8"></rect><g id="Homepage"><path d="M-1003 -3147C-1003 -3148.1 -1002.1 -3149 -1001 -3149H2884C2885.1 -3149 2886 -3148.1 2886 -3147V2564C2886 2565.1 2885.1 2566 2884 2566H-1001C-1002.1 2566 -1003 2565.1 -1003 2564V-3147Z" fill="#D9D9D9"></path><path d="M-1001 -3148H2884V-3150H-1001V-3148ZM2885 -3147V2564H2887V-3147H2885ZM2884 2565H-1001V2567H2884V2565ZM-1002 2564V-3147H-1004V2564H-1002ZM-1001 2565C-1001.55 2565 -1002 2564.55 -1002 2564H-1004C-1004 2565.66 -1002.66 2567 -1001 2567V2565ZM2885 2564C2885 2564.55 2884.55 2565 2884 2565V2567C2885.66 2567 2887 2565.66 2887 2564H2885ZM2884 -3148C2884.55 -3148 2885 -3147.55 2885 -3147H2887C2887 -3148.66 2885.66 -3150 2884 -3150V-3148ZM-1001 -3150C-1002.66 -3150 -1004 -3148.66 -1004 -3147H-1002C-1002 -3147.55 -1001.55 -3148 -1001 -3148V-3150Z" fill="black" fill-opacity="0.1"></path><g id="Homepage R4" clip-path="url(#clip0_608_17)"><rect width="1440" height="5295" transform="translate(-352 -2829)" fill="white"></rect><g id="Icons"><g id="Icon Cards"><g id="Icon Card 1" filter="url(#filter0_d_608_17)"><rect x="-105" y="-20" width="290" height="208" rx="12" fill="white"></rect><g id="Icon / Bill"><g id="Group"><path id="Vector" d="M9.60336 68.4667C9.92836 68.6229 10.3138 68.5789 10.5953 68.3539L15.8536 64.1479L21.112 68.3539C21.4544 68.6281 21.9414 68.6281 22.2838 68.3539L27.5414 64.1479L32.7986 68.3539C33.1429 68.6292 33.6325 68.6276 33.975 68.35L40.0244 63.4445L44.8205 67.7925L44.7934 68.0008H44.7931C44.7306 68.3112 44.8004 68.6336 44.9859 68.8901C45.1098 69.0607 45.2765 69.1953 45.4692 69.2808V74.2383C45.4697 75.1602 45.8361 76.0443 46.4879 76.6964C47.1397 77.3487 48.0236 77.7156 48.9455 77.7167H54.9728C55.8944 77.7157 56.7783 77.349 57.4301 76.6972C58.0819 76.0453 58.4485 75.1618 58.4496 74.2399V69.2324C58.6514 69.1219 58.8191 68.9581 58.934 68.7589C59.0491 68.5597 59.1071 68.3329 59.1017 68.1029C59.1017 68.0941 59.1017 68.0855 59.1006 68.0766L59.0082 66.318V66.3178V66.3131C58.8832 64.1394 59.6704 62.0795 61.1673 60.6634C61.3548 60.4871 61.54 60.3022 61.7184 60.1141C63.6702 58.0454 64.917 55.4121 65.2809 52.5915C65.6444 49.7707 65.1062 46.9071 63.7429 44.4108C62.3799 41.9147 60.2616 39.9139 57.6918 38.6952V25.0859H69.9905C70.5082 25.0859 70.928 24.6661 70.928 24.1484V9.83573C70.9256 7.89513 70.178 6.02973 68.8392 4.62506C67.5004 3.2204 65.6728 2.38393 63.7348 2.28886V2.27923H17.6074C15.3444 2.28183 13.1746 3.18183 11.5746 4.78209C9.97435 6.38236 9.07435 8.55189 9.07202 10.8149V67.6229C9.07254 67.9828 9.27905 68.3106 9.60327 68.4666L9.60336 68.4667ZM47.344 69.3867H56.5754V71.5172H47.344V69.3867ZM54.9734 75.8417H48.946C48.5213 75.8411 48.114 75.6721 47.8138 75.3719C47.5135 75.0714 47.3445 74.6641 47.3442 74.2393V73.3922H56.5756V74.2393C56.5753 74.6641 56.4063 75.0713 56.1058 75.3719C55.8055 75.6724 55.3982 75.8411 54.9735 75.8417H54.9734ZM63.5214 50.865H63.5211C63.525 53.8257 62.3924 56.6749 60.357 58.825C60.2036 58.987 60.0445 59.1461 59.8807 59.2997C57.9802 61.0977 56.9799 63.6925 57.1365 66.4184L57.194 67.5121L46.7474 67.5124L46.783 67.2382C47.2018 64.3049 46.1825 61.3497 44.0445 59.2982C42.8354 58.1602 41.8848 56.7758 41.257 55.2388C40.6292 53.7015 40.3388 52.0476 40.4052 50.3885C40.618 44.558 45.376 39.6892 51.2306 39.3045C53.34 39.1753 55.4444 39.6256 57.316 40.6066C59.1876 41.5876 60.7553 43.062 61.849 44.8701C62.9428 46.6782 63.5212 48.7511 63.5212 50.8641L63.5214 50.865ZM69.0526 9.83567V23.2103H57.692V9.83567C57.692 7.80627 58.7745 5.931 60.5321 4.91613C62.2899 3.90127 64.4553 3.90127 66.2128 4.91613C67.9704 5.931 69.0532 7.80627 69.0532 9.83567H69.0526ZM10.9473 10.8149C10.9491 9.049 11.6514 7.356 12.9002 6.10733C14.1489 4.85867 15.8418 4.15627 17.6077 4.1542H58.399C56.7582 5.586 55.8168 7.65733 55.817 9.83493V37.9749C54.2934 37.5221 52.7022 37.3387 51.1155 37.4335C44.3068 37.8807 38.7795 43.5416 38.5322 50.3175V50.3173C38.4553 52.2431 38.7926 54.1629 39.5215 55.9472C40.2502 57.7313 41.3533 59.3383 42.7562 60.6597C44.0593 61.91 44.8502 63.6009 44.9749 65.4025L40.6879 61.5157C40.3452 61.2051 39.827 61.1907 39.4678 61.4821L33.3804 66.4186L28.127 62.2155C27.7845 61.9413 27.2976 61.9413 26.9551 62.2155L21.6976 66.4215L16.4392 62.2155C16.0968 61.9413 15.6098 61.9413 15.2674 62.2155L10.9466 65.6717L10.9473 10.8149Z" fill="#1C2C57"></path><path id="Vector_2" d="M16.0754 30.948H16.4934C17.0111 30.948 17.4308 30.5282 17.4308 30.0105C17.4308 29.4929 17.011 29.0731 16.4934 29.0731H16.0754C15.5577 29.0731 15.1379 29.4929 15.1379 30.0105C15.1379 30.5282 15.5577 30.948 16.0754 30.948Z" fill="#1C2C57"></path><path id="Vector_3" d="M20.6633 30.948H23.8203C24.3383 30.948 24.7578 30.5282 24.7578 30.0105C24.7578 29.4929 24.3382 29.0731 23.8203 29.0731H20.6633C20.1456 29.0731 19.7258 29.4929 19.7258 30.0105C19.7258 30.5282 20.1456 30.948 20.6633 30.948Z" fill="#1C2C57"></path><path id="Vector_4" d="M28.0573 30.948H50.6873C51.205 30.948 51.6248 30.5282 51.6248 30.0105C51.6248 29.4929 51.205 29.0731 50.6873 29.0731H28.0573C27.5396 29.0731 27.1199 29.4929 27.1199 30.0105C27.1199 30.5282 27.5397 30.948 28.0573 30.948Z" fill="#1C2C57"></path><path id="Vector_5" d="M16.0754 22.044H16.4934C17.0111 22.044 17.4308 21.6245 17.4308 21.1065C17.4308 20.5888 17.011 20.1691 16.4934 20.1691H16.0754C15.5577 20.1691 15.1379 20.5889 15.1379 21.1065C15.1379 21.6245 15.5577 22.044 16.0754 22.044Z" fill="#1C2C57"></path><path id="Vector_6" d="M20.6633 22.044H23.8203C24.3383 22.044 24.7578 21.6245 24.7578 21.1065C24.7578 20.5888 24.3382 20.1691 23.8203 20.1691H20.6633C20.1456 20.1691 19.7258 20.5889 19.7258 21.1065C19.7258 21.6245 20.1456 22.044 20.6633 22.044Z" fill="#1C2C57"></path><path id="Vector_7" d="M28.0573 22.044H50.6873C51.205 22.044 51.6248 21.6245 51.6248 21.1065C51.6248 20.5888 51.205 20.1691 50.6873 20.1691H28.0573C27.5396 20.1691 27.1199 20.5889 27.1199 21.1065C27.1199 21.6245 27.5397 22.044 28.0573 22.044Z" fill="#1C2C57"></path><path id="Vector_8" d="M16.0754 13.1407H16.4934C17.0111 13.1407 17.4308 12.7209 17.4308 12.2032C17.4308 11.6855 17.011 11.2657 16.4934 11.2657H16.0754C15.5577 11.2657 15.1379 11.6855 15.1379 12.2032C15.1379 12.7209 15.5577 13.1407 16.0754 13.1407Z" fill="#1C2C57"></path><path id="Vector_9" d="M20.6633 13.1407H23.8203C24.3383 13.1407 24.7578 12.7209 24.7578 12.2032C24.7578 11.6855 24.3382 11.2657 23.8203 11.2657H20.6633C20.1456 11.2657 19.7258 11.6855 19.7258 12.2032C19.7258 12.7209 20.1456 13.1407 20.6633 13.1407Z" fill="#1C2C57"></path><path id="Vector_10" d="M28.0573 13.1407H50.6873C51.205 13.1407 51.6248 12.7209 51.6248 12.2032C51.6248 11.6855 51.205 11.2657 50.6873 11.2657H28.0573C27.5396 11.2657 27.1199 11.6855 27.1199 12.2032C27.1199 12.7209 27.5397 13.1407 28.0573 13.1407Z" fill="#1C2C57"></path><path id="Vector_11" d="M16.0754 39.852H16.4934C17.0111 39.852 17.4308 39.4322 17.4308 38.9145C17.4308 38.3966 17.011 37.9771 16.4934 37.9771H16.0754C15.5577 37.9771 15.1379 38.3966 15.1379 38.9145C15.1379 39.4322 15.5577 39.852 16.0754 39.852Z" fill="#1C2C57"></path><path id="Vector_12" d="M20.6633 39.852H23.8203C24.3383 39.852 24.7578 39.4322 24.7578 38.9145C24.7578 38.3966 24.3382 37.9771 23.8203 37.9771H20.6633C20.1456 37.9771 19.7258 38.3966 19.7258 38.9145C19.7258 39.4322 20.1456 39.852 20.6633 39.852Z" fill="#1C2C57"></path><path id="Vector_13" d="M28.0573 39.852H41.784C42.3017 39.852 42.7215 39.4322 42.7215 38.9145C42.7215 38.3966 42.3017 37.9771 41.784 37.9771H28.0573C27.5396 37.9771 27.1199 38.3966 27.1199 38.9145C27.1199 39.4322 27.5397 39.852 28.0573 39.852Z" fill="#1C2C57"></path><path id="Vector_14" d="M18.7488 58.298H18.7305H18.7123C18.2605 58.2931 17.8287 58.11 17.5105 57.7886C17.1925 57.4675 17.0139 57.034 17.0131 56.5818C17.0131 56.0641 16.5936 55.6444 16.0757 55.6444C15.5579 55.6444 15.1382 56.0642 15.1382 56.5818C15.1395 57.3709 15.3999 58.1378 15.8796 58.7644C16.3593 59.3909 17.0317 59.8422 17.7931 60.0492V60.8162C17.7931 61.3339 18.2129 61.7536 18.7306 61.7536C19.2483 61.7536 19.6681 61.3338 19.6681 60.8162V60.0492C20.7985 59.7435 21.7092 58.9062 22.1082 57.8052C22.5071 56.7039 22.3444 55.4776 21.6717 54.5188C20.9993 53.5602 19.9017 52.9894 18.7306 52.9894C18.2751 52.9896 17.8381 52.8086 17.516 52.4865C17.1939 52.1646 17.0129 51.7276 17.0129 51.2722C17.0126 50.8167 17.1936 50.3797 17.5157 50.0576C17.8379 49.7354 18.2749 49.5544 18.7303 49.5544C19.1858 49.5544 19.6228 49.7354 19.9449 50.0576C20.2668 50.3797 20.4478 50.8167 20.4478 51.2722C20.4478 51.7899 20.8676 52.2096 21.3853 52.2096C21.9029 52.2096 22.3227 51.7898 22.3227 51.2722C22.3217 50.4831 22.0613 49.7162 21.5816 49.0896C21.1019 48.4631 20.4295 48.0115 19.6681 47.8048V47.1587C19.6681 46.6407 19.2483 46.2212 18.7306 46.2212C18.2129 46.2212 17.7931 46.6407 17.7931 47.1587V47.8048C16.6627 48.1102 15.7523 48.9478 15.3533 50.0488C14.9546 51.1498 15.1173 52.3761 15.7897 53.335C16.4621 54.2936 17.5595 54.8644 18.7306 54.8644C19.3407 54.8662 19.9041 55.1914 20.2105 55.719C20.517 56.2466 20.5204 56.8972 20.2196 57.4279C19.9189 57.9586 19.3587 58.2899 18.7488 58.298L18.7488 58.298Z" fill="#F47822"></path><path id="Vector_15" d="M27.2707 57.786H35.1954C35.7131 57.786 36.1329 57.3665 36.1329 56.8485C36.1329 56.3308 35.7131 55.9111 35.1954 55.9111H27.2707C26.753 55.9111 26.3333 56.3309 26.3333 56.8485C26.3333 57.3665 26.753 57.786 27.2707 57.786Z" fill="#1C2C57"></path><path id="Vector_16" d="M46.46 56.8453C46.6331 57.1097 46.9279 57.2688 47.2438 57.2688H49.9561L50.029 64.8361L50.0287 64.8358C50.0334 65.278 50.3465 65.6567 50.7798 65.7447C51.2131 65.8325 51.6491 65.6057 51.8257 65.2004L57.5322 52.0558V52.0555C57.658 51.7659 57.6293 51.4323 57.4564 51.1682C57.2833 50.9042 56.9887 50.7451 56.6728 50.7448H53.9608L53.8871 43.1781C53.8824 42.736 53.5694 42.3573 53.1361 42.2695C52.7027 42.1817 52.2671 42.4086 52.0902 42.8138L46.3842 55.9578H46.3845C46.2584 56.2474 46.2868 56.5813 46.46 56.8453ZM52.055 47.602L52.0946 51.6913C52.0996 52.2054 52.5178 52.6197 53.0321 52.6197H55.2435L51.8613 60.4111L51.8219 56.322C51.817 55.8077 51.3985 55.3936 50.8845 55.3936H48.6728L52.055 47.602Z" fill="#F47822"></path></g></g></g></g></g></g></g><defs><filter id="filter0_d_608_17" x="-125" y="-40" width="330" height="248" filterUnits="userSpaceOnUse" color-interpolation-filters="sRGB"><feFlood flood-opacity="0" result="BackgroundImageFix"></feFlood><feColorMatrix in="SourceAlpha" type="matrix" values="0 0 0 0 0 0 0 0 0 0 0 0 0 0 0 0 0 0 127 0" result="hardAlpha"></feColorMatrix><feOffset></feOffset><feGaussianBlur stdDeviation="10"></feGaussianBlur><feColorMatrix type="matrix" values="0 0 0 0 0.109804 0 0 0 0 0.172549 0 0 0 0 0.341176 0 0 0 0.16 0"></feColorMatrix><feBlend mode="normal" in2="BackgroundImageFix" result="effect1_dropShadow_608_17"></feBlend><feBlend mode="normal" in="SourceGraphic" in2="effect1_dropShadow_608_17" result="shape"></feBlend></filter><clipPath id="clip0_608_17"><rect width="1440" height="5295" fill="white" transform="translate(-352 -2829)"></rect></clipPath></defs></svg> 