<?xml version="1.0" encoding="UTF-8"?> <svg xmlns="http://www.w3.org/2000/svg" width="80" height="80" viewBox="0 0 80 80" fill="none"><path d="M60.3873 19.72C60.3873 20.2377 60.8071 20.6575 61.3248 20.6575H62.0701C62.5878 20.6575 63.0076 20.2377 63.0076 19.72C63.0076 19.2023 62.5878 18.7825 62.0701 18.7825H61.3248C60.8071 18.7825 60.3873 19.2023 60.3873 19.72Z" fill="#F47822"></path><path d="M58.0427 18.782H38.6207C38.103 18.782 37.6832 19.2018 37.6832 19.7195C37.6832 20.2371 38.103 20.6569 38.6207 20.6569H58.0427C58.5604 20.6569 58.9802 20.2371 58.9802 19.7195C58.9802 19.2018 58.5604 18.782 58.0427 18.782Z" fill="#F47822"></path><path d="M61.0001 12.55C61.0001 12.0323 60.5803 11.6125 60.0626 11.6125H59.1334C58.6157 11.6125 58.1959 12.0323 58.1959 12.55C58.1959 13.068 58.6157 13.4875 59.1334 13.4875H60.0626C60.5803 13.4875 61.0001 13.0679 61.0001 12.55Z" fill="#F47822"></path><path d="M43.838 13.4873H55.9866C56.5044 13.4873 56.9241 13.0678 56.9241 12.5499C56.9241 12.0322 56.5043 11.6124 55.9866 11.6124H43.838C43.3203 11.6124 42.9005 12.0322 42.9005 12.5499C42.9005 13.0678 43.3203 13.4873 43.838 13.4873Z" fill="#F47822"></path><path d="M38.4726 13.4873H40.6685C41.1862 13.4873 41.606 13.0678 41.606 12.5499C41.606 12.0322 41.1862 11.6124 40.6685 11.6124H38.4726C37.9547 11.6124 37.5352 12.0322 37.5352 12.5499C37.5352 13.0678 37.9547 13.4873 38.4726 13.4873Z" fill="#F47822"></path><path d="M60.38 49.292C57.1079 49.292 53.9696 50.592 51.656 52.9061C49.3422 55.2199 48.0425 58.3581 48.0425 61.6307C48.0425 64.9031 49.3425 68.0411 51.6565 70.3547C53.9703 72.6685 57.1086 73.9685 60.3812 73.9685C63.6533 73.9685 66.7916 72.6685 69.1052 70.3547C71.419 68.0407 72.719 64.9024 72.719 61.6301C72.7154 58.3587 71.4141 55.2225 69.101 52.9094C66.7877 50.5961 63.6515 49.2951 60.3803 49.2917L60.38 49.292ZM60.38 72.0933C57.605 72.0933 54.9438 70.9907 52.9813 69.0285C51.0191 67.0662 49.917 64.4048 49.917 61.6298C49.917 58.8548 51.0196 56.1933 52.9819 54.2311C54.9441 52.2689 57.6055 51.1665 60.3805 51.1665C63.1555 51.1665 65.817 52.2691 67.7792 54.2314C69.7415 56.1937 70.8438 58.8551 70.8438 61.6301C70.8407 64.4043 69.7373 67.0639 67.7756 69.0254C65.8141 70.9871 63.1543 72.0905 60.3803 72.0934L60.38 72.0933Z" fill="#F47822"></path><path d="M60.38 57.024C60.8719 57.0245 61.3435 57.2204 61.6914 57.5683C62.0394 57.9162 62.2352 58.3878 62.2357 58.8797C62.2357 59.3977 62.6555 59.8172 63.1732 59.8172C63.6909 59.8172 64.1106 59.3977 64.1106 58.8797C64.1096 58.0539 63.8349 57.2513 63.3296 56.5979C62.8242 55.9446 62.1166 55.4771 61.3174 55.2685V54.5519C61.3174 54.0342 60.8976 53.6144 60.3799 53.6144C59.8622 53.6144 59.4424 54.0342 59.4424 54.5519V55.2685C58.2609 55.5756 57.3044 56.4407 56.881 57.5855C56.4578 58.7305 56.6211 60.0099 57.3185 61.0115C58.0159 62.0133 59.1593 62.6105 60.3799 62.6107C61.0427 62.6071 61.657 62.9574 61.9917 63.5295C62.326 64.1016 62.3299 64.8087 62.0018 65.3847C61.6734 65.9605 61.063 66.3172 60.4003 66.3209C60.3935 66.3209 60.3867 66.3198 60.38 66.3198C60.3732 66.3198 60.3664 66.3198 60.3594 66.3209C59.8711 66.3151 59.4047 66.1172 59.0612 65.7701C58.7177 65.423 58.5247 64.9545 58.5242 64.4662C58.5242 63.9485 58.1044 63.5287 57.5868 63.5287C57.069 63.5287 56.6493 63.9485 56.6493 64.4662C56.6503 65.2925 56.9248 66.0948 57.4303 66.7484C57.9355 67.4021 58.643 67.8695 59.4426 68.0784V68.9221C59.4426 69.4398 59.8624 69.8596 60.38 69.8596C60.8977 69.8596 61.3175 69.4398 61.3175 68.9221V68.0784C62.4988 67.7716 63.4552 66.9062 63.8787 65.7614C64.3021 64.6166 64.1386 63.337 63.4412 62.3354C62.7438 61.3336 61.6006 60.7364 60.38 60.7364C59.717 60.7364 59.1042 60.3825 58.7727 59.8086C58.4412 59.2343 58.4412 58.5268 58.7727 57.9526C59.1042 57.3783 59.717 57.0247 60.38 57.0247L60.38 57.024Z" fill="#F47822"></path><path d="M76.2333 14.914C76.2349 14.2695 75.9828 13.6505 75.532 13.1903L64.914 2.30767C64.4497 1.83319 63.8143 1.56467 63.1505 1.56287H33.4591C32.8055 1.56443 32.1795 1.82485 31.7177 2.28733C31.2563 2.74983 30.9969 3.3764 30.9967 4.0298V14.4778L29.1855 12.4958C27.8292 11.0151 25.9139 10.1711 23.9058 10.1693H9.96247C8.06587 10.169 6.2466 10.9227 4.90547 12.2638C3.56407 13.6049 2.81067 15.4242 2.81067 17.3208V58.0435C2.81249 59.9395 3.56667 61.7578 4.90754 63.0984C6.24814 64.4393 8.06613 65.1935 9.96247 65.1955H43.9525C44.603 68.1945 46.0621 70.9583 48.1717 73.1869C50.2814 75.4158 52.9608 77.0243 55.9197 77.8384C58.8789 78.6525 62.0041 78.6407 64.9564 77.8048C67.9093 76.9689 70.5767 75.3402 72.6697 73.0959C74.7627 70.8517 76.2013 68.0772 76.8294 65.0733C77.4578 62.0693 77.2515 58.9509 76.2333 56.0559L76.2333 14.914ZM64.4767 4.54467L73.102 13.3853H68.6835C67.5666 13.3843 66.4961 12.9395 65.707 12.1489C64.9182 11.3585 64.4757 10.2869 64.4771 9.16993L64.4767 4.54467ZM32.8713 4.02904H32.8711C32.8711 3.70352 33.1341 3.43919 33.4596 3.43789H62.6016V9.16889C62.6 10.7832 63.2399 12.3316 64.3803 13.4738C65.5206 14.6163 67.0683 15.2587 68.6824 15.26H74.3584L74.3581 52.3127C72.443 49.4468 69.6972 47.2351 66.4895 45.9742V31.9562C66.489 30.0598 65.7354 28.241 64.3942 26.9004C63.053 25.5596 61.2343 24.8064 59.3379 24.8062H32.8712L32.8713 4.02904ZM15.4433 63.3204C15.5215 63.2493 15.5978 63.1769 15.6725 63.1016C17.0188 61.7634 17.7738 59.9418 17.7686 58.0433V43.9066C17.7686 43.3889 17.3488 42.9692 16.8311 42.9692C16.3134 42.9692 15.8936 43.389 15.8936 43.9066V58.0453C15.8934 59.4435 15.3382 60.7844 14.3499 61.7734C13.3616 62.7625 12.0212 63.3188 10.6231 63.3203H9.95904C8.56038 63.3185 7.21971 62.762 6.23091 61.7726C5.24211 60.7836 4.68611 59.4424 4.68484 58.0437V17.321C4.68484 15.9216 5.24083 14.5794 6.23044 13.5898C7.22006 12.6002 8.56224 12.0442 9.96171 12.0444H23.905C25.3866 12.046 26.7993 12.6686 27.8001 13.7611L30.996 17.257V24.807L23.0453 24.8067C21.1487 24.8067 19.3294 25.5604 17.9883 26.9015C16.6472 28.2426 15.8935 30.0616 15.8935 31.9585V36.0944C15.8935 36.6121 16.3133 37.0319 16.831 37.0319C17.3487 37.0319 17.7684 36.6121 17.7684 36.0944V31.9585C17.7684 30.559 18.3244 29.2168 19.314 28.2272C20.3037 27.2376 21.6458 26.6816 23.0453 26.6816H59.3373C60.7368 26.6816 62.079 27.2376 63.0686 28.2272C64.0582 29.2168 64.6142 30.559 64.6142 31.9585V45.3645C61.1027 44.4512 57.3902 44.6986 54.0308 46.0694C50.6715 47.4403 47.8457 49.8608 45.9755 52.9701C44.1052 56.0792 43.2911 59.7101 43.6547 63.3201L15.4433 63.3204ZM74.4813 62.5683H75.2782C75.0725 65.8753 73.7683 69.0191 71.5725 71.5003L71.0134 70.9412H71.0131C70.6456 70.5834 70.059 70.5876 69.6964 70.9501C69.3339 71.3128 69.33 71.8993 69.6876 72.267L70.2467 72.8261C67.7654 75.0222 64.6217 76.3269 61.3147 76.5329V75.736C61.3147 75.2183 60.8949 74.7986 60.3772 74.7986C59.8595 74.7986 59.4398 75.2184 59.4398 75.736V76.5329C56.1328 76.3269 52.989 75.0222 50.5078 72.8261L51.0669 72.267H51.0671C51.4333 71.9008 51.4333 71.3073 51.0671 70.9412C50.701 70.575 50.1075 70.575 49.7413 70.9412L49.182 71.5003C46.9859 69.019 45.6812 65.8753 45.4752 62.5683H46.272C46.79 62.5683 47.2095 62.1485 47.2095 61.6308C47.2095 61.1132 46.79 60.6934 46.272 60.6934H45.4752C45.6811 57.3861 46.9858 54.2426 49.182 51.7614L49.7413 52.3207C50.1075 52.6869 50.701 52.6869 51.0671 52.3207C51.4333 51.9543 51.4333 51.3609 51.0671 50.9947L50.508 50.4356C52.989 48.2395 56.1327 46.935 59.44 46.729V47.5259C59.44 48.0436 59.8598 48.4634 60.3775 48.4634C60.8952 48.4634 61.3149 48.0436 61.3149 47.5259V46.729C64.6222 46.9347 67.7663 48.2392 70.2476 50.4356L69.6888 50.9944C69.5104 51.1697 69.4096 51.409 69.4086 51.6587C69.4075 51.9087 69.5065 52.1488 69.683 52.3257C69.8599 52.5025 70.1 52.6012 70.35 52.6001C70.5997 52.5994 70.839 52.4986 71.0143 52.3205L71.5734 51.7613C73.7695 54.2426 75.0742 57.3861 75.2802 60.6933H74.4833C73.9656 60.6933 73.5459 61.1131 73.5459 61.6308C73.5459 62.1485 73.9657 62.5683 74.4833 62.5683L74.4813 62.5683Z" fill="#1C2C57"></path></svg> 