<?xml version="1.0" encoding="UTF-8"?> <svg xmlns="http://www.w3.org/2000/svg" width="80" height="80" viewBox="0 0 80 80" fill="none"><path d="M77.5001 75.36H68.0467V71.2C68.0467 70.68 67.6267 70.26 67.1067 70.26H64.9067L60.5601 30.04C60.5067 29.5667 60.1067 29.2 59.6267 29.2H50.8001C50.3201 29.2 49.9201 29.56 49.8667 30.04L45.5201 70.26H43.3201C42.8001 70.26 42.3801 70.68 42.3801 71.2V75.36H39.6334V70.52C39.6334 70 39.2134 69.58 38.6934 69.58H36.0867L31.1467 23.4467C31.0934 22.9733 30.6934 22.6067 30.2134 22.6067H20.2067C19.7267 22.6067 19.3267 22.9667 19.2734 23.4467L14.3334 69.58H11.7267C11.2067 69.58 10.7867 70 10.7867 70.52V75.36H2.50006C1.98006 75.36 1.56006 75.78 1.56006 76.3C1.56006 76.82 1.98006 77.24 2.50006 77.24H77.5001C78.0201 77.24 78.4401 76.82 78.4401 76.3C78.4401 75.78 78.0201 75.36 77.5001 75.36ZM63.0267 70.26H47.4067L51.2001 35.16H55.2201H59.2401L63.0267 70.26ZM58.7934 31.08L59.0334 33.28H55.2201H51.4001L51.6401 31.08H58.7934ZM44.2601 72.14H66.1734V75.36H44.2601V72.14ZM20.5534 29.1067H29.8734L30.6001 35.8867L19.4867 39.1067L20.5534 29.1067ZM19.2667 41.1267L30.8001 37.78L31.2534 42.0467L18.8267 45.1933L19.2667 41.1267ZM18.6201 47.18L31.4601 43.9267L32.4201 52.8733L17.6334 56.4133L18.6201 47.18ZM17.4201 58.3933L32.6201 54.7533L33.0734 59L16.9667 62.64L17.4201 58.3933ZM29.3801 24.4867L29.6734 27.2333H20.7534L21.0467 24.4867H29.3801ZM16.7534 64.6133L33.2734 60.88L34.2067 69.58H16.2201L16.7534 64.6133ZM12.6734 71.4533H37.7601V75.3533H12.6734V71.4533Z" fill="#1C2C57"></path><path d="M67.4135 16.8667C66.5401 15.3333 65.0468 14.2533 63.3135 13.9067C61.5868 13.5533 59.7868 13.9667 58.3801 15.0333C56.9735 16.1 56.1001 17.72 55.9735 19.48C55.9201 19.5 55.8668 19.5133 55.8135 19.5333C54.5735 19.9867 53.6268 20.9933 53.2535 22.26C52.8801 23.5267 53.1268 24.8867 53.9268 25.94C54.7201 26.9933 55.9668 27.6 57.2868 27.5867C58.6068 27.5733 59.8335 26.9333 60.6068 25.8667C62.3268 26.2933 64.1535 25.96 65.6068 24.9467C66.6001 25.2667 67.6735 25.2 68.6135 24.76C69.5601 24.32 70.3001 23.5467 70.7001 22.5867C71.1001 21.6267 71.1268 20.5533 70.7668 19.5733C70.5068 18.86 70.0601 18.2333 69.4668 17.7533C68.8735 17.2667 68.1668 16.9667 67.4135 16.8667ZM68.9268 21.9467C68.6668 22.5 68.2001 22.9267 67.6201 23.1333C67.0468 23.34 66.4135 23.3 65.8601 23.0333C65.5268 22.8667 65.1268 22.92 64.8401 23.16C64.2468 23.66 63.5335 23.9867 62.7735 24.1133C62.0135 24.24 61.2268 24.1533 60.5135 23.8667C60.0468 23.68 59.5135 23.9 59.3068 24.36C59.0868 24.8467 58.7068 25.2467 58.2268 25.48C57.7468 25.7133 57.2001 25.7733 56.6801 25.64C56.1601 25.5133 55.7068 25.2 55.3935 24.7667C55.0801 24.3333 54.9268 23.8067 54.9668 23.2667C55.0068 22.7333 55.2268 22.2267 55.6001 21.8467C55.9735 21.46 56.4668 21.22 57.0001 21.1667C57.5001 21.12 57.8735 20.68 57.8401 20.1733C57.7868 19.26 58.0335 18.3467 58.5335 17.58C59.0401 16.8133 59.7735 16.2267 60.6335 15.9133C61.0935 15.7467 61.5801 15.66 62.0735 15.66C62.8935 15.66 63.6935 15.8933 64.3868 16.34C65.0735 16.78 65.6268 17.4133 65.9668 18.16C66.1201 18.4933 66.4535 18.7133 66.8201 18.7133H66.8668C67.3335 18.7133 67.7868 18.86 68.1735 19.1267C68.5535 19.3933 68.8468 19.7733 69.0068 20.2133C69.2135 20.7733 69.1868 21.4 68.9268 21.9467Z" fill="#F47822"></path><path d="M39.9134 6.49333C39.36 5.7 38.5534 5.11333 37.6267 4.84C36.7 4.56666 35.7 4.62 34.8067 4.99333C33.7134 3.78 32.22 3 30.6 2.81333C28.98 2.62 27.34 3.02666 26 3.96C24.6134 4.92 23.64 6.36666 23.2734 8.00666C21.5 8.74666 20.2 10.3067 19.7934 12.1867C19.3867 14.0667 19.92 16.02 21.2267 17.4333C22.5334 18.8467 24.44 19.5267 26.3467 19.2667C28.2467 19.0067 29.9067 17.8267 30.78 16.12C32.7334 15.8333 34.46 14.7067 35.5067 13.04C36.62 13.2933 37.7934 13.0867 38.7534 12.46C39.7134 11.8333 40.38 10.8533 40.6 9.72666C40.8067 8.6 40.5667 7.43333 39.9134 6.49333ZM38.7534 9.32666C38.62 10.0467 38.1667 10.66 37.52 11C36.8734 11.3333 36.1067 11.3533 35.44 11.0467C35.2134 10.94 34.9534 10.9333 34.72 11.02C34.4867 11.1067 34.2934 11.28 34.1934 11.5067C33.8267 12.3 33.2467 12.98 32.5267 13.4733C31.8 13.9667 30.96 14.2533 30.0867 14.3C29.72 14.32 29.4 14.5533 29.2667 14.8933C28.7667 16.18 27.6334 17.1133 26.28 17.3667C24.9267 17.62 23.5334 17.1667 22.5934 16.1533C21.6534 15.14 21.3067 13.72 21.6667 12.3867C22.0267 11.0533 23.0467 10 24.3667 9.6C24.72 9.49333 24.9734 9.19333 25.02 8.82666C25.2067 7.48 25.9467 6.27333 27.06 5.5C27.8667 4.94 28.82 4.64 29.8 4.64C30.0934 4.64 30.3867 4.66666 30.68 4.72C31.94 4.94666 33.06 5.66666 33.7867 6.72666C34.08 7.15333 34.6667 7.26 35.0934 6.96666C35.6067 6.61333 36.24 6.47333 36.86 6.58666C37.4734 6.7 38.02 7.05333 38.38 7.56666C38.7267 8.07333 38.8667 8.71333 38.7534 9.32666Z" fill="#F47822"></path></svg> 