<?xml version="1.0" encoding="UTF-8"?> <svg xmlns="http://www.w3.org/2000/svg" width="80" height="80" viewBox="0 0 80 80" fill="none"><path d="M37.4846 55.4687C37.1648 55.3108 36.7832 55.3481 36.5002 55.5647L35.0548 56.6718C35.0113 56.453 34.9829 56.2314 34.9702 56.0087L34.8559 54.0407C34.8546 54.0152 34.8517 53.9894 34.8483 53.9639C34.5759 52.0014 33.7658 50.1524 32.5077 48.622C31.2494 47.0912 29.5921 45.9389 27.7194 45.292L27.0799 45.0694H27.0796C26.2127 44.7665 25.4247 44.2725 24.7744 43.6238L21.6887 40.5381L20.6348 36.9715C20.3762 36.016 19.8382 35.1595 19.0897 34.5116C18.3411 33.8637 17.4163 33.4541 16.4335 33.3351L16.2832 32.8343C16.2811 32.8267 16.2788 32.8192 16.2762 32.8119C15.7723 31.2717 14.1244 30.2689 12.4225 30.3355L12.3999 30.2595C12.0699 29.1501 11.3246 28.2108 10.3194 27.6374C9.31419 27.0637 8.12639 26.9001 7.00352 27.1806C6.52201 27.3001 6.21706 27.7738 6.30766 28.2616L9.71466 46.5976C9.72299 46.6414 9.73393 46.6843 9.74825 46.7262C10.5577 49.1062 12.1071 51.1648 14.1701 52.6012L21.6115 57.7283C21.6281 57.7398 21.6448 57.7505 21.662 57.7609C22.1737 58.0661 22.551 58.5539 22.7177 59.126L23.9638 64.6547C23.995 64.789 24.0554 64.9146 24.1411 65.0226L22.7219 66.1094C22.4901 66.2867 22.3541 66.562 22.3541 66.8536V75.567C22.3541 75.912 22.5435 76.2292 22.8474 76.3928C23.1513 76.556 23.5206 76.5394 23.8083 76.349L37.5863 67.2457L37.5866 67.2459C37.8493 67.0722 38.0074 66.7785 38.0074 66.4637V56.3103C38.0074 55.9533 37.8048 55.627 37.4845 55.4689L37.4846 55.4687ZM18.8259 37.466C18.828 37.4743 18.8303 37.4827 18.8329 37.4905L19.0985 38.3907C18.6931 38.1996 18.2649 38.0605 17.8243 37.9767L17.0587 35.422C17.9301 35.7965 18.5814 36.5499 18.8259 37.466ZM14.491 33.3847L15.865 37.9686C15.4999 38.0342 15.1428 38.1376 14.7994 38.2774L14.779 38.2118L12.9939 32.2446C13.6838 32.3704 14.2947 32.8001 14.491 33.3847ZM24.5417 58.6874C24.538 58.6718 24.5341 58.6548 24.5294 58.6384H24.5292C24.2393 57.6072 23.5688 56.7241 22.6527 56.1684L15.2367 51.059C13.5231 49.8655 12.2309 48.16 11.5455 46.1874L8.33952 28.9327C8.85958 28.9824 9.35279 29.1866 9.75619 29.5186C10.1596 29.8507 10.4547 30.2957 10.6033 30.7965L12.9851 38.7585L13.1633 39.3335C13.1252 39.3694 13.0864 39.4046 13.0492 39.4418C12.8682 39.6231 12.7692 39.8702 12.7752 40.1262C12.781 40.3822 12.8914 40.6244 13.0804 40.797L16.8086 44.2022C17.8878 45.1887 18.875 46.2712 19.7575 47.4366C20.07 47.8497 20.6583 47.9309 21.071 47.6184C21.4838 47.3059 21.5653 46.7179 21.2528 46.3051C20.301 45.0483 19.2367 43.8809 18.0731 42.8177L15.1747 40.1703C15.8301 39.8169 16.5822 39.6838 17.3195 39.7914C18.0565 39.8989 18.7395 40.2409 19.2669 40.7669L23.4484 44.9487C24.2992 45.7969 25.3299 46.4432 26.464 46.8393L27.1036 47.062C28.6447 47.5943 30.0091 48.5409 31.0471 49.7982C32.0848 51.0552 32.7562 52.5742 32.9869 54.188L33.0989 56.1164C33.1341 56.724 33.252 57.324 33.4497 57.8998L25.7004 63.8292L24.5417 58.6874ZM36.1324 65.9587L24.229 73.8234V67.3164L36.1324 58.2071V65.9587Z" fill="#1C2C57"></path><path d="M72.9933 27.18C71.8706 26.8996 70.6829 27.0631 69.6777 27.6365C68.6725 28.2097 67.9271 29.1491 67.5969 30.2581L67.574 30.3342C65.872 30.2675 64.2243 31.2706 63.7204 32.8107C63.7178 32.8183 63.7154 32.8258 63.7133 32.8331L63.5631 33.3339L63.5633 33.3341C62.5805 33.4532 61.6558 33.8628 60.9071 34.5107C60.1586 35.1583 59.6206 36.0148 59.362 36.9705L58.3081 40.5375L55.2224 43.6229V43.6226C54.5721 44.2713 53.7841 44.7653 52.9172 45.0685L52.2776 45.2911H52.2773C50.4047 45.938 48.7474 47.0903 47.4891 48.6211C46.231 50.1515 45.4209 52.0005 45.1485 53.963C45.1448 53.9885 45.1422 54.014 45.1409 54.0398L45.0266 56.0078V56.0076C45.0138 56.2305 44.9855 56.4521 44.942 56.6708L43.4969 55.5648C43.2136 55.3479 42.8315 55.3107 42.5118 55.4687C42.192 55.6268 41.9894 55.9526 41.9894 56.3093V66.4627C41.9894 66.7775 42.1475 67.0713 42.4102 67.2449L56.1882 76.3483L56.1885 76.348C56.4762 76.5384 56.8455 76.5551 57.1494 76.3918C57.4533 76.2282 57.6426 75.911 57.6426 75.566V66.8533C57.6426 66.5614 57.5067 66.2861 57.2749 66.1088L55.8551 65.0223C55.9408 64.9142 56.0012 64.7887 56.0322 64.6543L57.2783 59.1257C57.4452 58.5535 57.8223 58.0658 58.3343 57.7605C58.3512 57.7501 58.3681 57.7394 58.3848 57.728L65.8281 52.5996C67.8904 51.1634 69.4393 49.1053 70.2485 46.7259C70.2628 46.684 70.2737 46.641 70.2821 46.5973L73.6893 28.2606H73.6891C73.7797 27.7728 73.4747 27.2989 72.9932 27.1793L72.9933 27.18ZM65.5053 33.385C65.7016 32.8003 66.3125 32.3704 67.0027 32.2444L65.2201 38.2032L65.1972 38.2772H65.197C64.8535 38.1376 64.4964 38.034 64.1314 37.9683L65.5053 33.385ZM61.1704 37.4662C61.4149 36.5501 62.066 35.7967 62.9373 35.422L62.1717 37.9766C61.7311 38.0605 61.303 38.1995 60.8975 38.3907L61.1632 37.4904C61.1658 37.4829 61.1683 37.4746 61.1704 37.4662ZM55.7673 73.8238L43.8639 65.9592V58.2078L55.7673 67.3172V73.8238ZM68.4506 46.1878C67.7655 48.1597 66.4743 49.8643 64.7618 51.0579L57.3438 56.1688C56.4277 56.7245 55.7571 57.6074 55.4673 58.6389C55.4626 58.6545 55.4584 58.6714 55.455 58.6878L54.2962 63.8303L46.5475 57.9009V57.9006C46.7452 57.3249 46.8631 56.7248 46.8983 56.1173L47.0103 54.1889C47.241 52.5751 47.9123 51.0561 48.9501 49.799C49.9881 48.5418 51.3525 47.5951 52.8936 47.0628L53.5332 46.8402C54.6673 46.4441 55.698 45.798 56.5488 44.9496L60.7303 40.7681C61.2577 40.242 61.9404 39.8999 62.6777 39.7925C63.4147 39.685 64.167 39.8178 64.8225 40.1714L61.9246 42.8186H61.9248C60.761 43.8818 59.6967 45.0493 58.7452 46.306C58.4327 46.7188 58.5139 47.3068 58.9267 47.6193C59.3397 47.9318 59.9278 47.8506 60.2402 47.4375C61.1228 46.2722 62.11 45.1896 63.1892 44.2031L66.9173 40.7979C67.1066 40.6253 67.2168 40.3831 67.2228 40.1271C67.2285 39.8711 67.1295 39.624 66.9485 39.4427C66.9113 39.4055 66.8725 39.3703 66.8345 39.3344L67.0139 38.7503L69.3933 30.7969H69.393C69.542 30.2962 69.8371 29.8513 70.2404 29.5196C70.6436 29.1878 71.137 28.9839 71.6568 28.9342L68.4506 46.1878Z" fill="#1C2C57"></path><path d="M48.6658 17.626C47.5586 15.3281 45.5839 13.5643 43.176 12.7223C40.7682 11.8804 38.1244 12.0293 35.8266 13.1366C33.5287 14.2436 31.7646 16.2184 30.9227 18.6262C30.0805 21.0338 30.2295 23.6776 31.3363 25.9756C32.4433 28.2738 34.4181 30.0378 36.8256 30.8802C39.2334 31.7224 41.8769 31.5737 44.1749 30.467C46.4853 29.3727 48.2609 27.3982 49.1049 24.9852C49.9486 22.5722 49.7905 19.9216 48.6658 17.6258L48.6658 17.626ZM33.0232 25.162C32.1318 23.3117 32.012 21.1831 32.6901 19.2443C33.3682 17.3055 34.7886 15.7156 36.639 14.8242C38.4893 13.9328 40.618 13.813 42.5568 14.4911C44.4953 15.169 46.0854 16.5896 46.9768 18.4398C47.8682 20.2903 47.988 22.419 47.3102 24.3575C46.632 26.2963 45.2115 27.8865 43.3612 28.7779C41.513 29.6833 39.3792 29.8104 37.4365 29.131C35.4938 28.4516 33.9042 27.0221 33.0232 25.162Z" fill="#F47822"></path><path d="M32.4692 6.1698C32.245 6.27762 32.0728 6.47006 31.9906 6.70496C31.9083 6.93985 31.9228 7.19766 32.0309 7.42189L33.4726 10.4144C33.6973 10.8808 34.2577 11.0769 34.7241 10.8521C35.1905 10.6274 35.3866 10.067 35.1619 9.60058L33.7202 6.60812C33.4955 6.14171 32.9356 5.94558 32.4692 6.1698Z" fill="#F47822"></path><path d="M45.2746 32.75C45.0506 32.8581 44.8788 33.0505 44.7967 33.2852C44.7147 33.5198 44.729 33.7776 44.8371 34.0016L46.2788 36.994C46.5035 37.4607 47.0639 37.6568 47.5303 37.4321C47.9969 37.2073 48.193 36.6469 47.9683 36.1803L46.5261 33.1875C46.418 32.9636 46.2256 32.7917 45.991 32.7097C45.7563 32.6276 45.4985 32.6419 45.2746 32.75Z" fill="#F47822"></path><path d="M52.2006 16.9633L55.1931 15.5217C55.6595 15.2969 55.8556 14.7368 55.6308 14.2701C55.4061 13.8037 54.846 13.6079 54.3793 13.8324L51.3868 15.274V15.2743C51.1597 15.3803 50.9847 15.5727 50.9006 15.8089C50.8165 16.0449 50.8303 16.3048 50.9392 16.5305C51.0477 16.7563 51.2425 16.929 51.4795 17.0105C51.7165 17.0917 51.9761 17.0748 52.2006 16.9633Z" fill="#F47822"></path><path d="M25.2138 29.862C25.3547 29.8617 25.4935 29.8297 25.6201 29.7682L28.6126 28.3266C29.0792 28.1018 29.2751 27.5414 29.0503 27.075C28.8256 26.6084 28.2652 26.4125 27.7988 26.6373L24.8063 28.0792C24.412 28.2691 24.2016 28.7063 24.299 29.1329C24.3967 29.5594 24.7764 29.8618 25.2139 29.8613L25.2138 29.862Z" fill="#F47822"></path><path d="M45.1892 4.12367L43.4303 9.15333C43.3459 9.38875 43.3589 9.64787 43.4665 9.87367C43.5741 10.0992 43.7673 10.2726 44.0032 10.3549C44.2392 10.4375 44.4983 10.4224 44.723 10.313C44.9478 10.2036 45.1196 10.0088 45.2001 9.77237L46.9592 4.7427C47.1301 4.2539 46.8725 3.71903 46.3837 3.54817C45.8949 3.37733 45.36 3.63487 45.1892 4.12367Z" fill="#F47822"></path><path d="M33.9259 40.106C34.3244 40.106 34.6793 39.8539 34.8108 39.4776L36.5697 34.4482C36.654 34.2131 36.641 33.9537 36.5335 33.7281C36.4259 33.5024 36.2327 33.3292 35.9967 33.2466C35.7608 33.1641 35.5017 33.1792 35.2769 33.2886C35.0522 33.3979 34.8803 33.5927 34.7999 33.8292L33.0407 38.8591C32.9405 39.1458 32.9853 39.4635 33.161 39.7114C33.3368 39.9594 33.622 40.1065 33.9259 40.1065L33.9259 40.106Z" fill="#F47822"></path><path d="M52.0286 27.0013L57.058 28.7602H57.0582C57.5468 28.931 58.0817 28.6735 58.2528 28.1847C58.4236 27.6959 58.166 27.161 57.6772 26.9902L52.6478 25.231H52.6476C52.1588 25.0602 51.6241 25.3177 51.453 25.8065C51.2822 26.2953 51.5398 26.8302 52.0286 27.0013Z" fill="#F47822"></path><path d="M27.6619 18.424C28.1195 18.4245 28.5106 18.0946 28.5874 17.6433C28.664 17.1922 28.4036 16.7516 27.9716 16.6011L22.9419 14.8419C22.4533 14.6711 21.9184 14.9286 21.7474 15.4174C21.5765 15.9062 21.8341 16.4411 22.3229 16.612L27.3523 18.3711H27.3525C27.452 18.406 27.5564 18.4237 27.6619 18.424Z" fill="#F47822"></path></svg> 