<?xml version="1.0" encoding="UTF-8"?> <svg xmlns="http://www.w3.org/2000/svg" width="80" height="80" viewBox="0 0 80 80" fill="none"><path d="M70.0667 22.4727C69.2394 20.7563 67.7641 19.4385 65.9654 18.8097C64.1667 18.181 62.1919 18.2922 60.4753 19.1196C58.7586 19.9466 57.4409 21.4216 56.812 23.2204C56.1828 25.019 56.2943 26.9938 57.1211 28.7105C57.9482 30.4272 59.4229 31.7452 61.2216 32.3743C63.0203 33.0035 64.9951 32.8925 66.7118 32.0657C68.4274 31.2368 69.7438 29.7613 70.373 27.9628C71.0019 26.1644 70.8917 24.1899 70.0667 22.4727ZM65.898 30.376C64.629 30.9875 63.1691 31.0695 61.8397 30.6046C60.51 30.1395 59.4196 29.1653 58.8081 27.8966C58.1969 26.6276 58.1147 25.1676 58.5797 23.8382C59.0446 22.5086 60.0188 21.4182 61.2878 20.8067C62.5565 20.1955 64.0165 20.1132 65.3461 20.5781C66.6755 21.0432 67.7662 22.0171 68.3774 23.2861C68.9873 24.5554 69.0685 26.0148 68.6037 27.3437C68.1389 28.6729 67.1657 29.7635 65.898 30.3759L65.898 30.376Z" fill="#F47822"></path><path d="M59.3114 14.542C59.0866 14.0756 58.5262 13.8795 58.0598 14.1042C57.5934 14.329 57.3976 14.8894 57.6223 15.3558L58.6601 17.5094L58.6598 17.5097C58.7666 17.7357 58.959 17.91 59.1947 17.9936C59.4304 18.0769 59.6895 18.0628 59.9148 17.9545C60.14 17.8459 60.3127 17.6519 60.3942 17.4154C60.4757 17.1792 60.4593 16.9201 60.3489 16.6956L59.3114 14.542Z" fill="#F47822"></path><path d="M67.2734 33.2353C67.0494 33.3431 66.8776 33.5356 66.7953 33.7705C66.7132 34.0051 66.7278 34.2629 66.8359 34.4869L67.8734 36.6406C68.0981 37.107 68.6585 37.3031 69.1249 37.0783C69.5913 36.8536 69.7871 36.2932 69.5624 35.8268L68.5247 33.6731L68.5249 33.6729C68.4169 33.4489 68.2244 33.277 67.9898 33.1947C67.7551 33.1127 67.4974 33.1273 67.2734 33.2353Z" fill="#F47822"></path><path d="M73.8267 19.62L71.673 20.6577L71.6727 20.6575C71.2063 20.8822 71.0105 21.4426 71.2352 21.909C71.46 22.3754 72.0201 22.5715 72.4868 22.3468L74.6404 21.309C75.1069 21.0843 75.3029 20.5239 75.0782 20.0575C74.8535 19.5911 74.2931 19.3953 73.8267 19.62Z" fill="#F47822"></path><path d="M52.952 31.656C53.0929 31.6557 53.2317 31.6237 53.3583 31.5623L55.5119 30.5245H55.5122C55.7382 30.418 55.9124 30.2256 55.996 29.9899C56.0794 29.7542 56.0653 29.4948 55.957 29.2696C55.8484 29.0446 55.6544 28.8719 55.4179 28.7904C55.1817 28.7089 54.9226 28.725 54.6981 28.8354L52.5445 29.8729C52.1499 30.0628 51.9392 30.5003 52.0369 30.9268C52.1346 31.3537 52.5145 31.656 52.952 31.6555L52.952 31.656Z" fill="#F47822"></path><path d="M67.0801 12.782L65.8145 16.4018C65.6436 16.8906 65.9014 17.4255 66.39 17.5963C66.8788 17.7672 67.4137 17.5096 67.5845 17.0208L68.8501 13.401C69.021 12.9122 68.7634 12.3773 68.2746 12.2065C67.7858 12.0354 67.2509 12.2932 67.0801 12.782Z" fill="#F47822"></path><path d="M59.6034 34.162L58.3378 37.7821C58.167 38.2709 58.4245 38.8057 58.9133 38.9766C59.4021 39.1474 59.937 38.8899 60.1079 38.4011L61.3735 34.781C61.5446 34.2922 61.2867 33.7573 60.7979 33.5865C60.3091 33.4156 59.7745 33.6732 59.6037 34.162H59.6034Z" fill="#F47822"></path><path d="M71.5868 28.388C71.5047 28.6226 71.5193 28.8802 71.6274 29.1044C71.7352 29.3284 71.9277 29.5002 72.1626 29.5823L75.7824 30.8479C76.2712 31.0187 76.8058 30.7609 76.9766 30.2723C77.1477 29.7835 76.8899 29.2487 76.4011 29.0778L72.7813 27.8127C72.2928 27.6424 71.7584 27.8997 71.5868 28.388Z" fill="#F47822"></path><path d="M50.7848 22.1047L54.4046 23.3703C54.8934 23.5411 55.428 23.2833 55.5991 22.7947C55.7699 22.3059 55.5121 21.7711 55.0233 21.6002L51.4035 20.3346C50.9147 20.1638 50.3801 20.4216 50.2093 20.9104C50.0382 21.3989 50.296 21.9339 50.7848 22.1047Z" fill="#F47822"></path><path d="M77.1401 55.474L60.2154 46.9873C59.9933 46.8759 59.7357 46.8574 59.4998 46.9358C59.2639 47.0142 59.0686 47.1829 58.9571 47.4053L57.5779 50.1566C57.4664 50.3788 57.4477 50.6363 57.5261 50.8722C57.6045 51.1082 57.7735 51.3035 57.9956 51.4149L65.8483 55.3524V65.9717H52.4696V56.2917L59.6669 59.9011C59.8891 60.0126 60.1466 60.0314 60.3825 59.953C60.6185 59.8746 60.8135 59.7056 60.925 59.4834L62.3044 56.7324C62.4158 56.5102 62.4346 56.2527 62.3562 56.0168C62.2778 55.7809 62.1088 55.5855 61.8867 55.4741L44.962 46.9874C44.7396 46.8759 44.4823 46.8574 44.2461 46.9358C44.0102 47.0142 43.8152 47.183 43.7037 47.4054L42.3243 50.1567C42.2128 50.3788 42.1943 50.6364 42.2725 50.8723C42.3509 51.1082 42.5199 51.3035 42.742 51.415L50.5947 55.3525V65.9718H34.7507V50.8465H38.8533C39.2324 50.8465 39.5741 50.6181 39.7191 50.2678C39.8645 49.9176 39.7842 49.5142 39.516 49.2462L34.7295 44.4598V34.7944C34.7295 34.2767 34.3098 33.857 33.7921 33.857H30.1475C29.6298 33.857 29.2101 34.2768 29.2101 34.7944V38.94L22.3074 32.0374C21.9415 31.6712 21.3477 31.6712 20.9816 32.0374L3.77361 49.2454C3.50564 49.5133 3.42543 49.9167 3.57048 50.267C3.7158 50.6172 4.05746 50.8456 4.43662 50.8456H8.53922V65.9709H3.28195C2.76424 65.9709 2.34448 66.3907 2.34448 66.9084C2.34448 67.4261 2.76428 67.8459 3.28195 67.8459H72.882C73.3997 67.8459 73.8194 67.4261 73.8194 66.9084C73.8194 66.3907 73.3996 65.9709 72.882 65.9709H67.721V56.2916L74.9184 59.901H74.9181C75.1405 60.0125 75.3978 60.0312 75.6337 59.9528C75.8699 59.8744 76.0649 59.7054 76.1764 59.4833L77.5558 56.7322C77.6673 56.5101 77.686 56.2525 77.6076 56.0164C77.5292 55.7804 77.3602 55.5851 77.1378 55.4737L77.1401 55.474ZM44.9601 49.0834L60.2087 56.7301L59.6699 57.8051L44.4213 50.1584L44.9601 49.0834ZM32.8547 35.7321V37.6021L31.0857 37.6024V35.7323L32.8547 35.7321ZM31.0857 39.4777H32.8547V42.5845L31.0857 40.8155V39.4777ZM9.47773 48.971H6.70093L21.6456 34.0263L36.5903 48.971H33.8139C33.2962 48.971 32.8765 49.3908 32.8765 49.9085V65.9711H26.6322V56.4458C26.6322 55.9281 26.2124 55.5083 25.6947 55.5083H17.5967C17.079 55.5083 16.6593 55.9281 16.6593 56.4458V65.9711H10.4153V49.9085C10.4153 49.3908 9.99547 48.971 9.4778 48.971H9.47773ZM24.7577 65.971H18.5345V57.3837H24.7577V65.971ZM74.9237 57.8043L59.6751 50.1577L60.2139 49.0829L75.4625 56.7296L74.9237 57.8043Z" fill="#1C2C57"></path></svg> 