<svg width="46" height="46" viewBox="0 0 46 46" fill="none" xmlns="http://www.w3.org/2000/svg">
<path d="M1.91663 29.2295C1.12272 29.2295 0.479126 29.8731 0.479126 30.667C0.479126 31.4609 1.12272 32.1045 1.91663 32.1045H7.66663C8.46053 32.1045 9.10413 31.4609 9.10413 30.667C9.10413 29.8731 8.46053 29.2295 7.66663 29.2295H1.91663Z" fill="white"/>
<path d="M1.91663 34.9795C1.12272 34.9795 0.479126 35.6231 0.479126 36.417C0.479126 37.2109 1.12272 37.8545 1.91663 37.8545H13.4166C14.2105 37.8545 14.8541 37.2109 14.8541 36.417C14.8541 35.6231 14.2105 34.9795 13.4166 34.9795H1.91663Z" fill="white"/>
<path d="M5.95863 9.75597L5.75 9.58333C6.3411 8.76977 6.97015 8.17134 7.78372 7.58024C10.3028 5.75 13.8963 5.75 21.0833 5.75H24.9167C32.1036 5.75 35.6971 5.75 38.2162 7.58024C39.0298 8.17134 39.6093 8.7042 40.2004 9.51776L39.9596 9.75718L35.5361 14.1807C32.3129 17.4039 29.9956 19.7168 27.9969 21.2418C26.0314 22.7414 24.5439 23.3429 22.9998 23.3429C21.4555 23.3429 19.968 22.7414 18.0025 21.2418C16.0038 19.7168 13.6865 17.4039 10.4633 14.1807L6.73875 10.4561L5.95863 9.75597Z" fill="white"/>
<path d="M3.83325 22.9997C3.83325 17.9398 3.83325 14.6611 4.47192 12.2845L4.76063 12.5436L8.50808 16.291C11.6366 19.4195 14.0884 21.8713 16.2585 23.5271C18.4798 25.2218 20.5742 26.2175 22.9997 26.2175C25.4251 26.2175 27.5196 25.2218 29.7408 23.5271C31.9109 21.8713 34.3627 19.4195 37.4913 16.2911L41.5214 12.2607C42.1666 14.6393 42.1666 17.923 42.1666 22.9997C42.1666 30.1866 42.1666 33.7801 40.3364 36.2992C39.7453 37.1128 39.0298 37.8283 38.2161 38.4194C35.6971 40.2497 32.1035 40.2497 24.9166 40.2497H21.0833C18.3456 40.2497 16.1293 40.2497 14.2952 40.1485C15.9888 39.7513 17.2499 38.231 17.2499 36.4163C17.2499 34.2992 15.5337 32.583 13.4166 32.583H10.9871C11.3133 32.0191 11.4999 31.3646 11.4999 30.6663C11.4999 28.5492 9.78368 26.833 7.66658 26.833H3.84707C3.83325 25.6809 3.83325 24.4094 3.83325 22.9997Z" fill="white"/>
</svg>
