<?xml version="1.0" encoding="UTF-8"?> <svg xmlns="http://www.w3.org/2000/svg" width="80" height="80" viewBox="0 0 80 80" fill="none"><path d="M23.3566 26.3907C22.8389 26.3907 22.4191 26.8105 22.4191 27.3281C22.4191 28.1836 21.9629 28.9742 21.222 29.4021C20.4809 29.8297 19.5681 29.8297 18.8272 29.4021C18.0863 28.9742 17.6298 28.1836 17.6298 27.3281C17.6298 26.8104 17.21 26.3907 16.6923 26.3907C16.1747 26.3907 15.7549 26.8105 15.7549 27.3281C15.7549 28.8537 16.5687 30.263 17.8897 31.0258C19.2108 31.7885 20.8384 31.7885 22.1596 31.0258C23.4804 30.2631 24.2942 28.8537 24.2942 27.3281C24.2942 26.8104 23.8747 26.3907 23.3567 26.3907H23.3566Z" fill="#F47822"></path><path d="M50.2573 38.1987C50.4221 38.1989 50.5839 38.1554 50.726 38.0726C51.1635 37.8198 51.6166 37.5825 52.0747 37.3677C52.533 37.1419 52.7263 36.5906 52.5091 36.1281C52.2919 35.6656 51.7442 35.4622 51.2778 35.6708C50.7726 35.9083 50.2716 36.1708 49.7885 36.4495C49.4203 36.6614 49.2406 37.0948 49.351 37.5052C49.4611 37.9156 49.8335 38.2005 50.2585 38.1995L50.2573 38.1987Z" fill="#F47822"></path><path d="M47.9153 40.078C48.3062 39.7384 48.3478 39.1465 48.0085 38.7553C47.6689 38.3644 47.0767 38.3228 46.6858 38.6621C45.5194 39.6756 44.4738 40.8202 43.5702 42.0736C42.3918 43.7074 41.4689 45.511 40.8335 47.4228C40.6702 47.9142 40.9361 48.4449 41.4275 48.6082C41.9189 48.7715 42.4496 48.5053 42.6129 48.0142C43.1884 46.2829 44.0241 44.6496 45.0916 43.1704C45.9103 42.0342 46.858 40.9965 47.9153 40.078Z" fill="#F47822"></path><path d="M63.2753 39.2347C63.3448 38.5128 63.3828 37.7852 63.3828 37.0602C63.3828 36.7698 63.3753 36.4821 63.3644 36.1935C64.9854 36.0183 66.4847 35.2505 67.5745 34.0378C68.6646 32.8251 69.2685 31.2527 69.2706 29.6222C69.2706 29.1045 68.8508 28.6847 68.3331 28.6847C67.8151 28.6847 67.3956 29.1045 67.3956 29.6222C67.3941 30.7816 66.9678 31.9001 66.1972 32.7662C65.4266 33.6323 64.3654 34.1863 63.2144 34.323C61.7118 22.0577 50.239 12.4877 36.351 12.4877C34.6758 12.4879 33.0031 12.6181 31.3479 12.8767C30.1919 11.1247 28.6192 9.68659 26.7711 8.69133C24.9229 7.69599 22.8568 7.17439 20.7576 7.17359C20.4602 7.17359 20.1805 7.31448 20.0039 7.55354C19.8271 7.7926 19.7739 8.10119 19.8612 8.38554L20.1495 9.32694C20.7437 11.2582 20.9659 13.2847 20.8042 15.2988C15.5857 17.3832 11.1555 21.0566 8.14082 25.7988L6.95902 27.666H3.67855C2.91035 27.6668 2.17362 27.9725 1.63035 28.5157C1.08712 29.0592 0.781684 29.7957 0.780884 30.5642V43.0089V43.0086C0.781665 43.7771 1.08714 44.5135 1.63035 45.0568C2.17384 45.6 2.91028 45.9058 3.67855 45.9065H7.02335C7.92728 47.6712 9.06162 49.3076 10.3966 50.7735C13.0541 53.731 14.5172 57.5708 14.5015 61.5475C14.5025 62.5624 14.9062 63.5355 15.6239 64.2532C16.3416 64.971 17.3148 65.3746 18.3296 65.3756H22.35C23.3648 65.3746 24.3379 64.9709 25.0557 64.2532C25.7734 63.5355 26.177 62.5624 26.1781 61.5475C26.1783 61.0295 26.3843 60.5332 26.7505 60.167C27.1166 59.8006 27.6132 59.5949 28.1312 59.5944H35.6345H35.6343C36.1522 59.5949 36.6486 59.8006 37.015 60.167C37.3812 60.5332 37.5869 61.0295 37.5874 61.5475C37.5885 62.5624 37.9921 63.5355 38.7098 64.2532C39.4275 64.971 40.4007 65.3746 41.4155 65.3756H48.4562C50.5929 68.5629 53.7559 70.923 57.4195 72.0636C61.0833 73.2042 65.0275 73.0566 68.5955 71.6451C72.1637 70.2339 75.1416 67.6438 77.0335 64.3058C78.926 60.9678 79.6189 57.0825 78.9973 53.2958C78.3755 49.5093 76.4767 46.0491 73.6163 43.4918C70.7559 40.9345 67.1065 39.4319 63.2743 39.2355L63.2753 39.2347ZM41.4133 63.4987C40.8956 63.4981 40.399 63.2924 40.0328 62.9263C39.6667 62.5599 39.4607 62.0635 39.4602 61.5455C39.4591 60.5307 39.0555 59.5575 38.3378 58.8398C37.6203 58.1221 36.6472 57.7185 35.632 57.7174H28.1294C27.1145 57.7185 26.1414 58.1221 25.4236 58.8398C24.7059 59.5575 24.3023 60.5307 24.3012 61.5455C24.3007 62.0635 24.095 62.5599 23.7288 62.9263C23.3624 63.2924 22.8661 63.4981 22.3481 63.4987H18.3288C17.8111 63.4981 17.3145 63.2924 16.9484 62.9263C16.5822 62.5599 16.3762 62.0635 16.3757 61.5455C16.3919 57.1052 14.7567 52.8175 11.788 49.5155C10.4401 48.0395 9.31739 46.3723 8.45646 44.5684C8.30177 44.2405 7.97157 44.0312 7.60879 44.0312H3.67833C3.40723 44.0309 3.14707 43.9231 2.95539 43.7312C2.76373 43.5395 2.65591 43.2796 2.65565 43.0082V30.5636C2.65591 30.2925 2.76373 30.0326 2.95565 29.8409C3.14732 29.6492 3.40721 29.5414 3.67832 29.5409H7.47519C7.79654 29.5409 8.0955 29.3763 8.26739 29.1047L9.72519 26.8013V26.8016C12.6213 22.245 16.9212 18.7542 21.9752 16.8562C22.3221 16.7414 22.5708 16.4357 22.6122 16.0724C22.882 13.7419 22.689 11.381 22.0445 9.12503C24.6718 9.44325 27.0921 10.712 28.8485 12.6917C30.605 14.6714 31.5766 17.2253 31.58 19.8717C31.58 20.3894 31.9998 20.8092 32.5175 20.8092C33.0352 20.8092 33.4549 20.3894 33.4549 19.8717C33.456 18.0628 33.0682 16.2748 32.3175 14.629C33.6547 14.4527 35.0019 14.3639 36.3505 14.3633C50.2219 14.3633 61.5065 24.5453 61.5065 37.0613V37.0611C61.5063 37.7907 61.4677 38.5197 61.3912 39.2455C57.6828 39.4694 54.1532 40.9161 51.3545 43.3593C48.5558 45.8027 46.6459 49.1046 45.9235 52.7486C45.2008 56.3929 45.7068 60.1739 47.3615 63.4999L41.4133 63.4987ZM62.4113 70.952C59.4579 70.952 56.571 70.0762 54.1153 68.4356C51.6598 66.7947 49.7458 64.4627 48.6156 61.7343C47.4854 59.0056 47.1898 56.0033 47.7658 53.1069C48.3421 50.2103 49.7643 47.5497 51.8526 45.4616C53.9411 43.3733 56.6018 41.9512 59.4986 41.3751C62.3952 40.7988 65.3975 41.0947 68.1259 42.2249C70.8546 43.3551 73.1866 45.2689 74.8272 47.7246C76.4678 50.1803 77.3436 53.0673 77.3436 56.0206C77.3392 59.9795 75.7644 63.7746 72.965 66.5739C70.1658 69.3731 66.3702 70.9479 62.4116 70.9523L62.4113 70.952Z" fill="#1C2C57"></path><path d="M62.4113 49.6613C63.1188 49.6621 63.7975 49.9436 64.298 50.4439C64.7986 50.9444 65.0798 51.6231 65.0806 52.3306C65.0806 52.8483 65.5004 53.2681 66.018 53.2681C66.5357 53.2681 66.9555 52.8483 66.9555 52.3306C66.9542 51.2887 66.5953 50.2785 65.9388 49.4694C65.2823 48.66 64.368 48.1007 63.3487 47.8843V46.7423C63.3487 46.2244 62.9289 45.8049 62.4112 45.8049C61.8936 45.8049 61.4738 46.2244 61.4738 46.7423V47.8843C59.9948 48.1962 58.7678 49.2231 58.2001 50.6239C57.6324 52.0247 57.7983 53.6161 58.6428 54.8697C59.4873 56.1231 60.8998 56.8749 62.4113 56.8749C63.361 56.876 64.2383 57.3817 64.7157 58.2028C65.1928 59.0239 65.1974 60.0367 64.7284 60.8625C64.2592 61.688 63.3865 62.2021 62.4368 62.2122C62.4282 62.2122 62.4198 62.2109 62.4112 62.2109C62.4024 62.2109 62.3943 62.2119 62.3857 62.2122H62.3855C61.6826 62.2049 61.0107 61.9205 60.5159 61.4213C60.0211 60.9219 59.743 60.2474 59.742 59.5443C59.742 59.0266 59.3222 58.6068 58.8045 58.6068C58.2868 58.6068 57.8671 59.0266 57.8671 59.5443C57.8684 60.5865 58.2272 61.5963 58.8837 62.4057C59.5402 63.2149 60.4545 63.7745 61.4739 63.9909V65.2969C61.4739 65.8146 61.8937 66.2343 62.4113 66.2343C62.929 66.2343 63.3488 65.8145 63.3488 65.2969V63.9909C64.828 63.6791 66.0553 62.6523 66.623 61.2513C67.191 59.8502 67.0251 58.2585 66.1803 57.0049C65.3358 55.7513 63.923 54.9997 62.4113 55C61.4576 55 60.5764 54.4911 60.0996 53.6653C59.6227 52.8395 59.6227 51.8221 60.0996 50.9961C60.5764 50.1703 61.4576 49.6614 62.4113 49.6614L62.4113 49.6613Z" fill="#F47822"></path></svg> 