<svg xmlns="http://www.w3.org/2000/svg" x="0px" y="0px" viewBox="6.422000408172607 6.501999855041504 35.156002044677734 34.996002197265625" enable-background="new 0 0 48 48">
<g>
	
		<path fill="#FFFFFF" stroke="#4CAF50FF" stroke-width="1" stroke-linecap="round" stroke-linejoin="round" stroke-miterlimit="10" d="   M38.62,30.76l-5.835,5.069c-2.685,2.333-6.678,2.333-9.363,0l-5.835-5.069c-1.561-1.356-2.457-3.322-2.457-5.389V14.141   c0-3.943,3.196-7.139,7.139-7.139h11.67c3.943,0,7.139,3.196,7.139,7.139v11.229C41.077,27.438,40.181,29.404,38.62,30.76z"/>
</g>
<g>
	
		<polyline fill="none" stroke="#FE5716FF" stroke-width="1" stroke-linecap="round" stroke-linejoin="round" stroke-miterlimit="10" points="   23.608,20.732 26.569,23.692 32.599,17.663  "/>
</g>
<g>
	
		<path fill="#FFFFFF" stroke="#FE5716FF" stroke-width="1" stroke-linecap="round" stroke-linejoin="round" stroke-miterlimit="10" d="   M16.157,27.368c2.456-2.262,2.297-4.089,3.476-4.097c3.824-0.025,0.381,6.595,0.381,6.595h3.346c0.98,0,1.887,0.51,2.388,1.353   c0.592,0.996,1.229,2.49,1.229,4.306c0,2.316-0.555,3.407-1.293,4.357c-0.538,0.693-1.353,1.115-2.231,1.115h-0.996h-6.282   c-2.069,0-3.747-1.678-3.747-3.747v-4.124C12.429,29.72,14.785,28.632,16.157,27.368z"/>
</g>
<g>
	
		<path fill="#FFFFFF" stroke="#4CAF50FF" stroke-width="1" stroke-linecap="round" stroke-linejoin="round" stroke-miterlimit="10" d="   M8.895,40.998h1.562c1.089,0,1.973-0.883,1.973-1.973v-7.017c0-1.089-0.883-1.973-1.973-1.973H8.895   c-1.089,0-1.973,0.883-1.973,1.973v7.017C6.923,40.114,7.806,40.998,8.895,40.998z"/>
</g>
</svg>