<svg width="140" height="140" viewBox="0 0 140 140" fill="none" xmlns="http://www.w3.org/2000/svg">
<circle cx="70" cy="70" r="70" fill="white"/>
<circle cx="70" cy="70" r="63.5" fill="white" stroke="#0A9642" stroke-width="3"/>
<g clip-path="url(#clip0_12_35)">
<path d="M99.0625 53.125H93.4375V49.375C93.4375 49.1264 93.3387 48.8879 93.1629 48.7121C92.9871 48.5363 92.7486 48.4375 92.5 48.4375H91.5625V44.6875C91.5625 44.4389 91.4637 44.2004 91.2879 44.0246C91.1121 43.8488 90.8736 43.75 90.625 43.75H85C84.7514 43.75 84.5129 43.8488 84.3371 44.0246C84.1613 44.2004 84.0625 44.4389 84.0625 44.6875V48.4375H83.125C82.8764 48.4375 82.6379 48.5363 82.4621 48.7121C82.2863 48.8879 82.1875 49.1264 82.1875 49.375V53.125H79.0171L77.4011 49.8932C77.3232 49.7374 77.2035 49.6065 77.0554 49.515C76.9073 49.4234 76.7366 49.375 76.5625 49.375H63.4375C63.2634 49.375 63.0927 49.4234 62.9446 49.515C62.7965 49.6065 62.6768 49.7374 62.5989 49.8932L60.9829 53.125H57.8125V49.375C57.8125 49.1264 57.7137 48.8879 57.5379 48.7121C57.3621 48.5363 57.1236 48.4375 56.875 48.4375H55.9375V44.6875C55.9375 44.4389 55.8387 44.2004 55.6629 44.0246C55.4871 43.8488 55.2486 43.75 55 43.75H49.375C49.1264 43.75 48.8879 43.8488 48.7121 44.0246C48.5363 44.2004 48.4375 44.4389 48.4375 44.6875V48.4375H47.5C47.2514 48.4375 47.0129 48.5363 46.8371 48.7121C46.6613 48.8879 46.5625 49.1264 46.5625 49.375V53.125H40.9375C40.6889 53.125 40.4504 53.2238 40.2746 53.3996C40.0988 53.5754 40 53.8139 40 54.0625V61.5625C40 61.8111 40.0988 62.0496 40.2746 62.2254C40.4504 62.4012 40.6889 62.5 40.9375 62.5H43.75V95.3125C43.75 95.5611 43.8488 95.7996 44.0246 95.9754C44.2004 96.1512 44.4389 96.25 44.6875 96.25H95.3125C95.5611 96.25 95.7996 96.1512 95.9754 95.9754C96.1512 95.7996 96.25 95.5611 96.25 95.3125V62.5H99.0625C99.3111 62.5 99.5496 62.4012 99.7254 62.2254C99.9012 62.0496 100 61.8111 100 61.5625V54.0625C100 53.8139 99.9012 53.5754 99.7254 53.3996C99.5496 53.2238 99.3111 53.125 99.0625 53.125ZM85.9375 45.625H89.6875V48.4375H85.9375V45.625ZM84.0625 50.3125H91.5625V53.125H84.0625V50.3125ZM64.0171 51.25H75.9829L76.9204 53.125H63.0796L64.0171 51.25ZM50.3125 45.625H54.0625V48.4375H50.3125V45.625ZM48.4375 50.3125H55.9375V53.125H48.4375V50.3125ZM94.375 94.375H45.625V62.5H94.375V94.375ZM98.125 60.625H41.875V55H98.125V60.625Z" fill="#0A9642"/>
<path d="M60.625 81.25H67.1875V88.75C67.1874 88.9387 67.2442 89.123 67.3505 89.2788C67.4568 89.4347 67.6077 89.5548 67.7834 89.6236C67.9591 89.6923 68.1515 89.7064 68.3353 89.6641C68.5192 89.6218 68.686 89.5249 68.8139 89.3863L80.0639 77.1988C80.1877 77.0649 80.2697 76.8978 80.2999 76.718C80.3302 76.5382 80.3073 76.3535 80.2342 76.1865C80.1611 76.0195 80.0409 75.8775 79.8883 75.7777C79.7357 75.678 79.5573 75.6249 79.375 75.625H72.8125V68.125C72.8126 67.9363 72.7557 67.752 72.6494 67.5962C72.5431 67.4403 72.3922 67.3202 72.2165 67.2514C72.0408 67.1827 71.8485 67.1686 71.6646 67.2109C71.4808 67.2533 71.3139 67.3501 71.186 67.4887L59.936 79.6762C59.8123 79.8101 59.7303 79.9772 59.7 80.157C59.6698 80.3368 59.6926 80.5215 59.7657 80.6885C59.8388 80.8555 59.959 80.9976 60.1117 81.0973C60.2643 81.197 60.4427 81.2501 60.625 81.25ZM70.9375 70.5228V76.5625C70.9375 76.8111 71.0362 77.0496 71.2121 77.2254C71.3879 77.4012 71.6263 77.5 71.875 77.5H77.2335L69.0625 86.3523V80.3125C69.0625 80.0639 68.9637 79.8254 68.7879 79.6496C68.6121 79.4738 68.3736 79.375 68.125 79.375H62.7664L70.9375 70.5228Z" fill="#0A9642"/>
<path d="M85.9375 68.125H86.875V69.0625C86.875 69.3111 86.9738 69.5496 87.1496 69.7254C87.3254 69.9012 87.5639 70 87.8125 70C88.0611 70 88.2996 69.9012 88.4754 69.7254C88.6512 69.5496 88.75 69.3111 88.75 69.0625V68.125H89.6875C89.9361 68.125 90.1746 68.0262 90.3504 67.8504C90.5262 67.6746 90.625 67.4361 90.625 67.1875C90.625 66.9389 90.5262 66.7004 90.3504 66.5246C90.1746 66.3488 89.9361 66.25 89.6875 66.25H88.75V65.3125C88.75 65.0639 88.6512 64.8254 88.4754 64.6496C88.2996 64.4738 88.0611 64.375 87.8125 64.375C87.5639 64.375 87.3254 64.4738 87.1496 64.6496C86.9738 64.8254 86.875 65.0639 86.875 65.3125V66.25H85.9375C85.6889 66.25 85.4504 66.3488 85.2746 66.5246C85.0988 66.7004 85 66.9389 85 67.1875C85 67.4361 85.0988 67.6746 85.2746 67.8504C85.4504 68.0262 85.6889 68.125 85.9375 68.125Z" fill="#0A9642"/>
<path d="M50.3125 68.125H54.0625C54.3111 68.125 54.5496 68.0262 54.7254 67.8504C54.9012 67.6746 55 67.4361 55 67.1875C55 66.9389 54.9012 66.7004 54.7254 66.5246C54.5496 66.3488 54.3111 66.25 54.0625 66.25H50.3125C50.0639 66.25 49.8254 66.3488 49.6496 66.5246C49.4738 66.7004 49.375 66.9389 49.375 67.1875C49.375 67.4361 49.4738 67.6746 49.6496 67.8504C49.8254 68.0262 50.0639 68.125 50.3125 68.125Z" fill="#0A9642"/>
</g>
<defs>
<clipPath id="clip0_12_35">
<rect width="60" height="60" fill="white" transform="translate(40 40)"/>
</clipPath>
</defs>
</svg>
