<svg width="100" height="100" viewBox="0 0 100 100" fill="none" xmlns="http://www.w3.org/2000/svg">
<circle cx="50" cy="50" r="50" fill="#0A9642"/>
<path d="M47.1265 78.481H63.329M57.253 46.0759H53.2024C51.2925 46.0759 50.3386 46.0759 49.7452 46.6693C49.1518 47.2628 49.1518 48.2167 49.1518 50.1266V54.1772C49.1518 56.0871 49.1518 57.041 49.7452 57.6344C50.3386 58.2278 51.2925 58.2278 53.2024 58.2278H57.253C59.1629 58.2278 60.1168 58.2278 60.7103 57.6344C61.3037 57.041 61.3037 56.0871 61.3037 54.1772V50.1266C61.3037 48.2167 61.3037 47.2628 60.7103 46.6693C60.1168 46.0759 59.1629 46.0759 57.253 46.0759ZM58.2657 58.2278H52.1898V78.481H58.2657V58.2278ZM61.3037 49.1139H69.4049C71.0164 49.1139 72.5618 49.754 73.7013 50.8935C74.8408 52.033 75.4809 53.5784 75.4809 55.1899V60.2531H69.4049V55.1899H61.3037V49.1139Z" stroke="white" stroke-width="2" stroke-linecap="round" stroke-linejoin="round"/>
<path d="M61.3038 40H50.3671C47.8111 40 46.5332 40 45.5266 40.6542C44.52 41.3084 44.0015 42.477 42.9625 44.8101L37 58.2278" stroke="white" stroke-width="2" stroke-linecap="round" stroke-linejoin="round"/>
<path d="M72.4427 66.3294L73.5728 65.3168C73.4304 65.1582 73.2561 65.0313 73.0614 64.9445C72.8667 64.8576 72.6559 64.8127 72.4427 64.8127C72.2295 64.8127 72.0187 64.8576 71.824 64.9445C71.6293 65.0313 71.455 65.1582 71.3126 65.3168L72.4427 66.3294ZM73.9617 71.3927C73.9617 71.7956 73.8017 72.1819 73.5168 72.4668C73.2319 72.7517 72.8456 72.9117 72.4427 72.9117V75.9497C73.6513 75.9497 74.8104 75.4696 75.665 74.615C76.5196 73.7604 76.9997 72.6013 76.9997 71.3927H73.9617ZM72.4427 72.9117C72.0398 72.9117 71.6535 72.7517 71.3686 72.4668C71.0838 72.1819 70.9237 71.7956 70.9237 71.3927H67.8857C67.8857 72.6013 68.3658 73.7604 69.2204 74.615C70.075 75.4696 71.2341 75.9497 72.4427 75.9497V72.9117ZM70.9237 71.3927C70.9237 71.3988 70.9237 71.3299 70.9784 71.1679C71.0284 71.0113 71.1121 70.8182 71.2295 70.5887C71.4665 70.1289 71.7987 69.6165 72.1571 69.1183C72.5933 68.5154 73.0569 67.9328 73.5465 67.3725L73.5668 67.3482L73.5728 67.3441L72.4427 66.3294L71.3126 65.3168H71.3085L71.2984 65.3269L71.27 65.3613C71.1105 65.5437 70.9532 65.7281 70.7981 65.9142C70.4984 66.2747 70.0974 66.7791 69.6903 67.3441C69.2893 67.9011 68.8599 68.5512 68.5298 69.1973C68.2219 69.7927 67.8857 70.5927 67.8857 71.3927H70.9237ZM72.4427 66.3294L71.3126 67.3421L71.3166 67.3482L71.3369 67.3725C71.4771 67.5304 71.6141 67.6912 71.748 67.8545C72.0174 68.1785 72.3759 68.6261 72.7283 69.1183C73.0868 69.6165 73.4169 70.1289 73.6559 70.5887C73.7733 70.8182 73.857 71.0113 73.907 71.1679C73.9597 71.3299 73.9617 71.3988 73.9617 71.3927H76.9997C76.9997 70.5927 76.6635 69.7968 76.3576 69.1993C76.0153 68.5538 75.6267 67.9337 75.1951 67.3441C74.7006 66.6589 74.1734 65.9979 73.6154 65.3634L73.585 65.3289L73.5769 65.3168L72.4427 66.3294Z" fill="white"/>
<path d="M55.2275 40V46.0759" stroke="white" stroke-width="2" stroke-linecap="round" stroke-linejoin="round"/>
<mask id="mask0_265_85" style="mask-type:luminance" maskUnits="userSpaceOnUse" x="19" y="23" width="24" height="24">
<path d="M19 23H43V47H19V23Z" fill="white"/>
</mask>
<g mask="url(#mask0_265_85)">
<path d="M31 41C32.5913 41 34.1174 40.3679 35.2426 39.2426C36.3679 38.1174 37 36.5913 37 35C37 33.4087 36.3679 31.8826 35.2426 30.7574C34.1174 29.6321 32.5913 29 31 29C29.4087 29 27.8826 29.6321 26.7574 30.7574C25.6321 31.8826 25 33.4087 25 35C25 36.5913 25.6321 38.1174 26.7574 39.2426C27.8826 40.3679 29.4087 41 31 41Z" stroke="white" stroke-width="2" stroke-miterlimit="10"/>
<path d="M22 35H20M42 35H40M31 44V46M31 24V26M24.636 41.364L23.222 42.778M38.778 27.222L37.364 28.636M24.636 28.636L23.222 27.222M38.778 42.778L37.364 41.364M37 35C37 36.5913 36.3679 38.1174 35.2426 39.2426C34.1174 40.3679 32.5913 41 31 41C29.4087 41 27.8826 40.3679 26.7574 39.2426C25.6321 38.1174 25 36.5913 25 35C25 33.4087 25.6321 31.8826 26.7574 30.7574C27.8826 29.6321 29.4087 29 31 29C32.5913 29 34.1174 29.6321 35.2426 30.7574C36.3679 31.8826 37 33.4087 37 35Z" stroke="white" stroke-width="2" stroke-miterlimit="10" stroke-linecap="round"/>
</g>
</svg>
