<svg width="100" height="100" viewBox="0 0 100 100" fill="none" xmlns="http://www.w3.org/2000/svg">
<circle cx="50" cy="50" r="50" fill="#0A9642"/>
<path d="M49.9998 43.7501C48.1409 43.7201 46.3254 44.3127 44.842 45.4334C43.3586 46.5542 42.2926 48.1388 41.8136 49.9351C41.3346 51.7315 41.47 53.6365 42.1984 55.3471C42.9267 57.0576 44.2062 58.4755 45.8332 59.3751M49.9998 31.2501V35.4167M38.7498 63.3334L35.8332 66.2501M33.3332 52.0834H29.1665M38.2082 40.2917L35.2707 37.3542M66.6665 33.3334V55.2917C68.2552 56.209 69.4968 57.6248 70.1988 59.3196C70.9008 61.0144 71.024 62.8935 70.5492 64.6654C70.0744 66.4374 69.0282 68.0032 67.5728 69.1199C66.1175 70.2366 64.3343 70.842 62.4998 70.842C60.6654 70.842 58.8822 70.2366 57.4268 69.1199C55.9715 68.0032 54.9252 66.4374 54.4505 64.6654C53.9757 62.8935 54.0988 61.0144 54.8008 59.3196C55.5029 57.6248 56.7445 56.209 58.3332 55.2917V33.3334C58.3332 32.2283 58.7722 31.1685 59.5536 30.3871C60.335 29.6057 61.3948 29.1667 62.4998 29.1667C63.6049 29.1667 64.6647 29.6057 65.4461 30.3871C66.2275 31.1685 66.6665 32.2283 66.6665 33.3334Z" stroke="white" stroke-width="3" stroke-linecap="round" stroke-linejoin="round"/>
</svg>
