<svg width="140" height="140" viewBox="0 0 140 140" fill="none" xmlns="http://www.w3.org/2000/svg">
<circle cx="70" cy="70" r="70" fill="white"/>
<circle cx="70" cy="70" r="63.5" fill="white" stroke="#0A9642" stroke-width="3"/>
<path d="M70 55.25C73.5158 55.25 76.375 52.3908 76.375 48.875C76.375 45.3592 73.5158 42.5 70 42.5C66.4842 42.5 63.625 45.3592 63.625 48.875C63.625 52.3908 66.4842 55.25 70 55.25ZM70 44.625C72.3439 44.625 74.25 46.5311 74.25 48.875C74.25 51.2189 72.3439 53.125 70 53.125C67.6561 53.125 65.75 51.2189 65.75 48.875C65.75 46.5311 67.6561 44.625 70 44.625Z" fill="#0A9642"/>
<path d="M97.3912 59.4999C94.7127 50.8809 87.9467 43.8876 79.4286 40.9136L80.2106 38.9491L77.0072 39.5898C74.9597 39.9978 72.8252 39.1839 71.5714 37.5126L70 35.4163L68.4286 37.5126C67.1748 39.1839 65.0413 39.9978 62.9928 39.5898L59.7894 38.9491L60.5714 40.9126C52.0289 43.8801 45.4106 50.6642 42.6661 59.3034C39.7347 60.6528 37.5619 63.4556 37.1422 66.7483C36.6672 70.4756 38.3301 74.0424 41.4814 76.0569C42.0329 76.4096 42.375 77.0875 42.375 77.8281V79.6874C42.375 81.8581 44.0176 83.6336 46.1214 83.8864C48.2102 87.0166 50.9366 89.7493 54.0625 91.8446V98.8124H41.3125V100.937H98.6875V98.8124H83.8125V93.1344C88.2219 90.7066 91.9024 87.177 94.5161 82.8749H100.812V80.7499H98.6875V78.6249H102.937V59.4999H97.3912ZM100.812 67.9999H96.5625V61.6249H100.812V67.9999ZM90.1875 76.4999V70.1249H94.4375V76.4999H90.1875ZM83.8125 70.1249H88.0625V76.4999H83.8125V70.1249ZM83.8125 67.9999V61.6249H88.0625V67.9999H83.8125ZM90.1875 67.9999V61.6249H94.4375V67.9999H90.1875ZM62.9992 41.7456C65.6395 42.1174 68.3329 41.0518 70 38.9533C71.6671 41.0518 74.3616 42.1185 77.0019 41.7456C76.5609 44.4252 77.5916 47.1473 79.7399 48.8643C77.5937 50.5208 76.5099 53.194 76.8563 55.8439C74.2086 55.5506 71.6182 56.662 69.9989 58.7944C68.5518 56.9744 66.3344 55.931 64.0447 55.931C63.6962 55.931 63.3466 55.9544 62.9981 56.0043C63.4401 53.3194 62.4052 50.5919 60.2473 48.8749C62.4052 47.1579 63.4401 44.4305 62.9992 41.7456ZM42.6268 74.2666C40.1735 72.6994 38.8804 69.922 39.2512 67.0171C39.6752 63.6841 42.4111 60.9896 45.7537 60.6113C46.0491 60.5784 46.3424 60.5624 46.6335 60.5624C48.4663 60.5624 50.1971 61.218 51.5773 62.4516C53.1572 63.8615 54.0625 65.8845 54.0625 67.9999C54.0625 70.5393 52.7832 72.8779 50.6412 74.2549C49.5182 74.9763 48.8318 76.2024 48.7627 77.5624H47.6875V70.992C48.9211 70.5521 49.8125 69.3833 49.8125 67.9999C49.8125 66.2426 48.3824 64.8124 46.625 64.8124C44.8676 64.8124 43.4375 66.2426 43.4375 67.9999C43.4375 69.3833 44.3289 70.5521 45.5625 70.992V77.5624H44.4841C44.4054 76.1908 43.7286 74.971 42.6268 74.2666ZM45.5625 67.9999C45.5625 67.4145 46.0396 66.9374 46.625 66.9374C47.2104 66.9374 47.6875 67.4145 47.6875 67.9999C47.6875 68.5854 47.2104 69.0624 46.625 69.0624C46.0396 69.0624 45.5625 68.5854 45.5625 67.9999ZM44.5 79.6874H48.75C48.75 80.8594 47.7969 81.8124 46.625 81.8124C45.4531 81.8124 44.5 80.8594 44.5 79.6874ZM75.3125 81.8124V86.6787L71.0625 85.8287V98.8124H66.8125V83.7037L64.6875 84.1287V81.8124H75.3125ZM64.6875 86.2962V98.8124H56.1875V87.9962L64.6875 86.2962ZM73.1875 98.8124V88.4212L81.6875 90.1212V98.8124H73.1875ZM83.8125 90.6854V88.3787L77.4375 87.1037V79.6874H75.3125V77.5624H73.1875V79.6874H71.0625V75.4374H68.9375V79.6874H66.8125V77.5624H64.6875V79.6874H62.5625V84.5537L54.0625 86.2537V89.2383C51.9205 87.6254 50.008 85.6874 48.4397 83.5146C49.8741 82.8314 50.875 81.3789 50.875 79.6874V77.7834C50.875 77.0726 51.2256 76.4054 51.7909 76.042C54.5438 74.2729 56.1875 71.2661 56.1875 67.9999C56.1875 65.2799 55.023 62.68 52.9936 60.8674C50.9653 59.0548 48.2347 58.1899 45.5147 58.5001C45.3989 58.5129 45.2862 58.5373 45.1715 58.5543C47.9159 51.3208 53.6598 45.6609 60.9581 43.0248C60.9379 44.8693 59.9912 46.6288 58.3167 47.6329L56.2481 48.8749L58.3178 50.117C60.6266 51.5025 61.5776 54.3224 60.5756 56.8246L59.7894 58.8008L62.9928 58.1601C65.0413 57.7532 67.1748 58.566 68.4286 60.2373L70 62.3336L71.6702 60.1077C72.8921 58.4778 74.8992 57.6682 76.9126 57.9954L79.8982 58.4821L79.2607 56.7693C78.3449 54.3064 79.3149 51.5386 81.5664 50.1871L83.753 48.8749L81.6832 47.6329C80.0098 46.6288 79.0642 44.8704 79.0429 43.0269C86.5771 45.765 92.593 51.9116 95.1653 59.4999H81.6875V78.6249H85.9375V80.7499H83.8125V82.8749H92.0107C89.8698 86.0401 87.0754 88.6964 83.8125 90.6854ZM96.5625 80.7499H88.0625V78.6249H96.5625V80.7499ZM96.5625 76.4999V70.1249H100.812V76.4999H96.5625Z" fill="#0A9642"/>
<path d="M100.812 98.8125H102.938V100.938H100.812V98.8125Z" fill="#0A9642"/>
<path d="M37.0625 98.8125H39.1875V100.938H37.0625V98.8125Z" fill="#0A9642"/>
<path d="M75.3125 94.5625H79.5625V96.6875H75.3125V94.5625Z" fill="#0A9642"/>
<path d="M58.3125 90.3125H62.5625V92.4375H58.3125V90.3125Z" fill="#0A9642"/>
<path d="M58.3125 94.5625H62.5625V96.6875H58.3125V94.5625Z" fill="#0A9642"/>
<path d="M62.5625 64.8125H77.4375V66.9375H62.5625V64.8125Z" fill="#0A9642"/>
<path d="M75.3125 69.0625H77.4375V71.1875H75.3125V69.0625Z" fill="#0A9642"/>
<path d="M66.8125 69.0625H68.9375V71.1875H66.8125V69.0625Z" fill="#0A9642"/>
<path d="M62.5625 69.0625H64.6875V71.1875H62.5625V69.0625Z" fill="#0A9642"/>
<path d="M71.0625 69.0625H73.1875V71.1875H71.0625V69.0625Z" fill="#0A9642"/>
</svg>
