<svg width="100" height="100" viewBox="0 0 100 100" fill="none" xmlns="http://www.w3.org/2000/svg">
<circle cx="50" cy="50" r="50" fill="#0A9642"/>
<g clip-path="url(#clip0_57_52)">
<path d="M68.367 33.9864C64.0896 29.7092 58.4026 27.3535 52.3535 27.3535C46.3045 27.3535 40.6174 29.7092 36.34 33.9865C32.3697 37.9568 30.0564 43.142 29.7446 48.7036C27.0276 49.3495 25 51.7952 25 54.7071V59.4141C25 60.223 25.6559 60.8789 26.4648 60.8789H26.5689V64.1211C26.5689 64.9301 27.2248 65.5859 28.0338 65.5859C28.8428 65.5859 29.4986 64.9301 29.4986 64.1211V60.8789H32.8449V64.1211C32.8449 64.9301 33.5008 65.5859 34.3098 65.5859C35.1188 65.5859 35.7746 64.9301 35.7746 64.1211V60.8789H35.8789C36.6879 60.8789 37.3438 60.223 37.3438 59.4141V54.7071C37.3438 51.8238 35.3561 49.3966 32.6791 48.7221C33.34 38.4437 41.911 30.2832 52.3535 30.2832C63.2254 30.2832 72.0703 39.1281 72.0703 50C72.0703 60.3795 64.0092 68.9114 53.8184 69.663V66.2675C58.9047 65.5527 62.8312 61.173 62.8312 55.893C62.8312 49.6247 60.2675 44.0265 58.1168 40.4339C55.8034 36.5695 53.5029 34.1757 53.4062 34.0758C53.1302 33.7906 52.7504 33.6297 52.3536 33.6297C51.9568 33.6297 51.577 33.7906 51.3011 34.0758C51.2043 34.1757 48.9038 36.5695 46.5905 40.4339C44.4398 44.0265 41.8762 49.6247 41.8761 55.8931C41.8763 61.173 45.8027 65.5527 50.8889 66.2675V71.1816C50.8889 71.9906 51.5447 72.6465 52.3537 72.6465C58.4028 72.6465 64.0899 70.2908 68.3673 66.0135C72.6446 61.7361 75 56.0491 75 50C75 43.9509 72.6443 38.2638 68.367 33.9864ZM34.4141 54.7071V57.9492H27.9297V54.7071C27.9297 52.9193 29.3842 51.4648 31.1718 51.4648C32.9597 51.4648 34.4141 52.9193 34.4141 54.7071ZM46.3721 47.6184L50.8887 52.1351V56.3112L45.409 50.8313C45.669 49.7121 45.9994 48.6366 46.3721 47.6184ZM59.2981 50.8314L53.8184 56.3112V52.1351L58.335 47.6183C58.7076 48.6366 59.038 49.7121 59.2981 50.8314ZM53.8184 63.2968V60.4544L59.8479 54.4249C59.8824 54.9097 59.9015 55.3992 59.9015 55.893C59.9015 59.5536 57.2814 62.6128 53.8184 63.2968ZM57.0999 44.7102L53.8184 47.9919V39.2267C54.3933 40.0256 55.0187 40.958 55.6413 42.0027C56.1183 42.8031 56.6178 43.7122 57.0999 44.7102ZM50.8887 39.2268V47.9919L47.607 44.7103C48.0893 43.7123 48.5888 42.8031 49.0658 42.0026C49.6885 40.9578 50.3138 40.0255 50.8887 39.2268ZM44.8056 55.893C44.8056 55.3991 44.8246 54.9096 44.8592 54.4247L50.8887 60.4544V63.2968C47.4257 62.6128 44.8058 59.5536 44.8056 55.893Z" fill="white"/>
</g>
<defs>
<clipPath id="clip0_57_52">
<rect width="50" height="50" fill="white" transform="translate(25 25)"/>
</clipPath>
</defs>
</svg>
