<svg width="140" height="140" viewBox="0 0 140 140" fill="none" xmlns="http://www.w3.org/2000/svg">
<circle cx="70" cy="70" r="70" fill="white"/>
<circle cx="70" cy="70" r="63.5" fill="white" stroke="#0A9642" stroke-width="3"/>
<path d="M65.5388 100.899H62.9115V98.9415C62.9115 98.1482 62.2624 97.4991 61.4691 97.4991H60.0885V94.4803H71.2673C71.803 94.4803 72.2976 94.2124 72.586 93.7591C72.8745 93.3057 72.9157 92.7494 72.6994 92.2651L67.0327 79.6748C66.7854 79.1185 66.2188 78.7476 65.6006 78.7476H44.5103C43.8921 78.7476 43.3357 79.1082 43.0782 79.6748L37.4115 92.2651C37.1951 92.7494 37.2363 93.3057 37.5248 93.7591C37.8133 94.2124 38.3079 94.4803 38.8436 94.4803H50.0224V97.4991H48.6418C47.8485 97.4991 47.1994 98.1482 47.1994 98.9415V100.899H44.5824C44.1703 100.899 43.8303 101.239 43.8303 101.651C43.8303 102.063 44.1703 102.403 44.5824 102.403H65.5388C65.9509 102.403 66.2909 102.063 66.2909 101.651C66.2909 101.239 65.9612 100.899 65.5388 100.899ZM71.3394 92.8833L71.2776 92.976H64.4363L63.7151 89.7718H69.9485L71.3394 92.8833ZM69.2685 88.2676H63.3751L62.623 84.95H67.7745L69.2685 88.2676ZM65.6109 80.2518C65.6418 80.2518 65.6624 80.2724 65.6727 80.293L67.0945 83.456H62.283L61.5618 80.2518H65.6109ZM55.8127 80.2518H60.0266L60.7479 83.456H55.8127V80.2518ZM55.8127 84.9603H61.0879L61.84 88.2779H55.823V84.9603H55.8127ZM55.8127 89.7718H62.1697L62.8909 92.976H55.8024V89.7718H55.8127ZM58.5945 94.4803V97.4991H51.5266V94.4803H58.5945ZM50.1048 80.2518H54.3188V83.456H49.3836L50.1048 80.2518ZM54.3085 84.9603V88.2779H48.2915L49.0436 84.9603H54.3085ZM44.5103 80.2518H48.5594L47.8382 83.456H43.0576L44.5103 80.2518ZM45.6951 92.976H38.8436L38.7818 92.8833L40.1933 89.7718H46.4163L45.6951 92.976ZM40.8733 88.2676L42.3776 84.95H47.4982L46.746 88.2676H40.8733ZM47.2303 92.976L47.9515 89.7718H54.3085V92.976H47.2303ZM61.4176 100.899H48.6933L48.6521 98.993L61.4176 98.9415V100.899Z" fill="#0A9642"/>
<path d="M99.2606 66.0643C98.8485 64.9928 97.9109 64.2407 96.8085 64.0861L86.2479 62.4995C86.2582 62.3861 86.2788 62.2728 86.2788 62.1595C86.2788 59.9649 84.9394 58.0795 83.0437 57.2758V38.8849C83.0437 38.3285 82.714 37.8546 82.1885 37.6795C81.6734 37.494 81.1273 37.6589 80.7873 38.0813L75.2649 44.9019C74.5643 45.7776 74.3685 46.9625 74.7806 48.0237L78.5206 57.5025C76.8413 58.3989 75.677 60.1401 75.677 62.1698C75.677 62.5716 75.7285 62.9528 75.8109 63.3237L59.8413 72.5449C59.3673 72.8128 59.1303 73.3382 59.2231 73.874C59.3261 74.4098 59.7382 74.8116 60.274 74.894L68.9388 76.2643C69.0934 76.2849 69.2582 76.2952 69.4128 76.2952C70.3606 76.2952 71.2776 75.8625 71.8752 75.1104L78.4794 66.8061C79.2316 67.2079 80.0764 67.4655 80.9831 67.4655C82.1988 67.4655 83.3013 67.0431 84.1976 66.3528L100.59 75.8007C100.796 75.914 101.012 75.9758 101.229 75.9758C101.527 75.9758 101.816 75.8728 102.063 75.6564C102.475 75.2958 102.609 74.7498 102.413 74.2552L99.2606 66.0643ZM76.1716 47.4673C75.9655 46.9213 76.0582 46.2928 76.4291 45.8395L81.5394 39.5237V56.9152C81.354 56.8946 81.1685 56.8534 80.9831 56.8534C80.6225 56.8534 80.2619 56.8946 79.9219 56.9564L76.1716 47.4673ZM70.7006 74.1831C70.3297 74.6467 69.7631 74.8734 69.1758 74.7807L61.16 73.5134L76.3673 64.7249C76.6146 65.1679 76.9031 65.5801 77.2637 65.9304L70.7006 74.1831ZM80.9831 65.9613C78.8813 65.9613 77.1813 64.251 77.1813 62.1595C77.1813 60.0576 78.8916 58.3576 80.9831 58.3576C83.0746 58.3576 84.7849 60.0679 84.7849 62.1595C84.7849 64.2613 83.0746 65.9613 80.9831 65.9613ZM85.2794 65.2401C85.5576 64.8588 85.774 64.4261 85.9388 63.9728L96.5922 65.5698C97.1588 65.6419 97.6431 66.0437 97.8491 66.6001L100.765 74.1728L85.2794 65.2401Z" fill="#0A9642"/>
<path d="M90.6164 100.899H88.5867L84.2182 69.1757C84.1667 68.7636 83.7855 68.4854 83.3734 68.5369C82.9612 68.5884 82.6728 68.9696 82.7346 69.3817L84.0946 79.2417H81.6321C81.22 79.2417 80.88 79.5817 80.88 79.9939C80.88 80.406 81.22 80.746 81.6321 80.746H84.3006L86.32 95.4072H81.8588C81.4467 95.4072 81.1067 95.7472 81.1067 96.1593C81.1067 96.5714 81.4467 96.9114 81.8588 96.9114H86.5261L87.0721 100.899H75.0588L76.6455 89.349H80.9521C81.3643 89.349 81.7043 89.009 81.7043 88.5969C81.7043 88.1848 81.3643 87.8448 80.9521 87.8448H76.8515L79.3861 69.4436C79.4376 69.0314 79.1594 68.6502 78.7473 68.5987C78.3249 68.5472 77.954 68.8254 77.9024 69.2375L73.5443 100.899H71.6176C71.2055 100.899 70.8655 101.239 70.8655 101.651C70.8655 102.063 71.2055 102.403 71.6176 102.403H90.6061C91.0182 102.403 91.3582 102.063 91.3582 101.651C91.3582 101.239 91.0285 100.899 90.6164 100.899Z" fill="#0A9642"/>
<path d="M61.0363 53.237C61.4485 53.237 61.7885 52.897 61.7885 52.4849C61.7885 50.4243 63.4679 48.7449 65.5285 48.7449C67.5891 48.7449 69.2582 50.4243 69.2582 52.4849C69.2582 54.5455 67.5891 56.2146 65.5285 56.2146H48.6624C48.2503 56.2146 47.9103 56.5546 47.9103 56.9667C47.9103 57.3789 48.2503 57.7189 48.6624 57.7189H65.5285C68.4133 57.7189 70.7624 55.3698 70.7624 52.4849C70.7624 49.6001 68.4133 47.251 65.5285 47.251C62.6436 47.251 60.2945 49.6001 60.2945 52.4849C60.2842 52.9073 60.6139 53.237 61.0363 53.237Z" fill="#0A9642"/>
<path d="M39.7297 50.7335H52.5878C55.4727 50.7335 57.8218 48.3844 57.8218 45.4996C57.8218 42.6147 55.4727 40.2656 52.5878 40.2656C49.703 40.2656 47.3539 42.6147 47.3539 45.4996C47.3539 45.9117 47.6939 46.2517 48.106 46.2517C48.5181 46.2517 48.8581 45.9117 48.8581 45.4996C48.8581 43.439 50.5375 41.7596 52.5981 41.7596C54.6588 41.7596 56.3278 43.439 56.3278 45.4996C56.3278 47.5602 54.6588 49.2293 52.5981 49.2293H39.7297C39.3175 49.2293 38.9775 49.5693 38.9775 49.9814C38.9878 50.3935 39.3175 50.7335 39.7297 50.7335Z" fill="#0A9642"/>
<path d="M88.4218 50.7336H98.086C100.641 50.7336 102.712 48.6627 102.712 46.1076C102.712 43.5524 100.641 41.4712 98.086 41.4712C95.5309 41.4712 93.4497 43.5524 93.4497 46.1076C93.4497 46.5197 93.7897 46.8597 94.2018 46.8597C94.6139 46.8597 94.9539 46.5197 94.9539 46.1076C94.9539 44.3766 96.3551 42.9754 98.086 42.9754C99.8066 42.9754 101.208 44.3766 101.208 46.1076C101.208 47.8282 99.8066 49.2294 98.086 49.2294H88.4218C88.0097 49.2294 87.6697 49.5694 87.6697 49.9815C87.68 50.3936 88.0097 50.7336 88.4218 50.7336Z" fill="#0A9642"/>
<path d="M87.9375 56.1839H98.3333C98.7454 56.1839 99.0854 55.8439 99.0854 55.4318C99.0854 55.0197 98.7454 54.6797 98.3333 54.6797H87.9375C87.5254 54.6797 87.1854 55.0197 87.1854 55.4318C87.1854 55.8439 87.5151 56.1839 87.9375 56.1839Z" fill="#0A9642"/>
<path d="M41.8521 61.4072C41.44 61.4072 41.1 61.7472 41.1 62.1593C41.1 62.5715 41.44 62.9115 41.8521 62.9115H55.9363C56.3485 62.9115 56.6885 62.5715 56.6885 62.1593C56.6885 61.7472 56.3485 61.4072 55.9363 61.4072H41.8521Z" fill="#0A9642"/>
</svg>
