<svg width="140" height="140" viewBox="0 0 140 140" fill="none" xmlns="http://www.w3.org/2000/svg">
<circle cx="70" cy="70" r="70" fill="white"/>
<circle cx="70" cy="70" r="63.5" fill="white" stroke="#0A9642" stroke-width="3"/>
<g clip-path="url(#clip0_12_57)">
<path d="M86.9975 43C82.5792 43 78.9975 46.5817 78.9975 51C79.0025 55.4163 82.5812 58.995 86.9975 59C91.4157 59 94.9975 55.4183 94.9975 51C94.9975 46.5817 91.4157 43 86.9975 43ZM86.9975 57C83.6837 57 80.9975 54.3138 80.9975 51C81.0007 47.6876 83.6851 45.0032 86.9975 45C90.3112 45 92.9975 47.6862 92.9975 51C92.9975 54.3138 90.3112 57 86.9975 57Z" fill="#0A9642"/>
<path d="M87.9975 38H85.9975V41H87.9975V38Z" fill="#0A9642"/>
<path d="M87.9975 61H85.9975V64H87.9975V61Z" fill="#0A9642"/>
<path d="M76.9975 50H73.9975V52H76.9975V50Z" fill="#0A9642"/>
<path d="M99.9975 50H96.9975V52H99.9975V50Z" fill="#0A9642"/>
<path d="M78.5112 41.1004L77.097 42.5146L79.2183 44.6359L80.6325 43.2217L78.5112 41.1004Z" fill="#0A9642"/>
<path d="M94.7744 57.3622L93.3602 58.7764L95.4815 60.8977L96.8957 59.4835L94.7744 57.3622Z" fill="#0A9642"/>
<path d="M79.2187 57.3611L77.0974 59.4824L78.5116 60.8966L80.6329 58.7753L79.2187 57.3611Z" fill="#0A9642"/>
<path d="M95.4827 41.1004L93.3614 43.2217L94.7756 44.6359L96.8969 42.5146L95.4827 41.1004Z" fill="#0A9642"/>
<path d="M93.8755 96.521L69.8755 52.521C69.7003 52.1997 69.3635 51.9999 68.9975 52H40.9975C40.9224 52.0016 40.8476 52.0113 40.7745 52.029C40.7665 52.029 40.7585 52.029 40.7505 52.029C40.653 52.0551 40.5603 52.0963 40.4755 52.151C40.4505 52.1675 40.4264 52.1856 40.4035 52.205C40.321 52.2676 40.2481 52.342 40.1875 52.426C40.1735 52.447 40.1545 52.464 40.1415 52.486C40.1203 52.5265 40.1021 52.5686 40.0875 52.612C40.0744 52.638 40.0628 52.6648 40.0525 52.692C40.0206 52.7889 40.0038 52.89 40.0025 52.992V60C40.0024 60.1661 40.0436 60.3298 40.1225 60.476L60.1175 97.476C60.2924 97.799 60.6303 98.0003 60.9975 98H92.9975C93.5498 98.0001 93.9976 97.5525 93.9976 97.0001C93.9978 96.8328 93.9558 96.668 93.8755 96.521ZM85.3125 85H78.5915L73.6825 76H80.4035L85.3125 85ZM61.3125 74H53.5915L48.6825 65H56.4035L61.3125 74ZM58.6825 65H65.4035L70.3125 74H63.5915L58.6825 65ZM62.4035 76L67.3125 85H59.5915L54.6825 76H62.4035ZM64.6825 76H71.4035L76.3125 85H69.5915L64.6825 76ZM79.3125 74H72.5915L67.6825 65H74.4035L79.3125 74ZM68.4035 54L73.3125 63H66.5915L61.6825 54H68.4035ZM59.4035 54L64.3125 63H57.5915L52.6825 54H59.4035ZM50.4035 54L55.3125 63H47.5915L42.6825 54H50.4035ZM61.5975 96L41.9975 59.747V56.922L63.3125 96H61.5975ZM65.5915 96L60.6825 87H68.4035L73.3125 96H65.5915ZM75.5915 96L70.6825 87H77.4035L82.3125 96H75.5915ZM84.5915 96L79.6825 87H86.4035L91.3125 96H84.5915Z" fill="#0A9642"/>
</g>
<defs>
<clipPath id="clip0_12_57">
<rect width="60" height="60" fill="white" transform="translate(40 38)"/>
</clipPath>
</defs>
</svg>
