<svg width="140" height="140" viewBox="0 0 140 140" fill="none" xmlns="http://www.w3.org/2000/svg">
<circle cx="70" cy="70" r="70" fill="white"/>
<circle cx="70" cy="70" r="63.5" fill="white" stroke="#0A9642" stroke-width="3"/>
<path d="M58.8637 62.379H58.4698C52.5607 62.379 47.9319 57.7502 47.9319 51.8411C47.9319 45.932 52.5607 41.3032 58.4698 41.3032C64.3789 41.3032 69.0076 45.932 69.0076 51.8411V52.235C69.0076 52.826 68.6137 53.2199 68.0228 53.2199C67.4319 53.2199 67.0379 52.826 67.0379 52.235V51.8411C67.0379 47.0153 63.2955 43.2729 58.4698 43.2729C53.644 43.2729 49.9016 47.0153 49.9016 51.8411C49.9016 56.6669 53.644 60.4093 58.4698 60.4093H58.8637C59.4546 60.4093 59.8486 60.8032 59.8486 61.3941C59.8486 61.985 59.4546 62.379 58.8637 62.379Z" fill="#0A9642"/>
<path d="M58.4697 39.3333C57.8788 39.3333 57.4849 38.9394 57.4849 38.3485V36.9697C57.4849 36.3788 57.8788 35.9849 58.4697 35.9849C59.0606 35.9849 59.4546 36.3788 59.4546 36.9697V38.3485C59.4546 38.9394 59.0606 39.3333 58.4697 39.3333Z" fill="#0A9642"/>
<path d="M44.8788 52.8257H43.5985C43.0076 52.8257 42.6136 52.4317 42.6136 51.8408C42.6136 51.2499 43.0076 50.856 43.5985 50.856H44.8788C45.4697 50.856 45.8636 51.2499 45.8636 51.8408C45.8636 52.4317 45.4697 52.8257 44.8788 52.8257Z" fill="#0A9642"/>
<path d="M48.8182 43.2727C48.5228 43.2727 48.3258 43.1742 48.1288 42.9772L47.2425 41.9924C46.8485 41.5984 46.8485 40.909 47.2425 40.6136C47.6364 40.2196 48.2273 40.3181 48.6213 40.7121L49.5076 41.6969C49.9016 42.0908 49.8031 42.6818 49.4091 43.0757C49.3107 43.1742 49.0152 43.2727 48.8182 43.2727Z" fill="#0A9642"/>
<path d="M68.1213 62.4774C67.8258 62.4774 67.6289 62.3789 67.4319 62.1819L67.3334 62.0834C66.9395 61.6895 66.9395 61.0986 67.3334 60.7046C67.7274 60.3107 68.3183 60.3107 68.7122 60.7046L68.8107 60.8031C69.2046 61.1971 69.2046 61.788 68.8107 62.1819C68.6137 62.3789 68.4168 62.4774 68.1213 62.4774Z" fill="#0A9642"/>
<path d="M47.9318 63.3637C47.7349 63.3637 47.4394 63.2652 47.2424 63.0682C46.8485 62.6743 46.8485 62.0834 47.144 61.6894L48.0303 60.7046C48.4243 60.3107 49.0152 60.3107 49.4091 60.6061C49.803 61.0001 49.803 61.591 49.5076 61.9849L48.6212 62.9697C48.4243 63.2652 48.2273 63.3637 47.9318 63.3637Z" fill="#0A9642"/>
<path d="M68.0228 43.2729C67.8258 43.2729 67.5303 43.1744 67.3334 42.9774C66.9394 42.5835 66.9394 41.9926 67.2349 41.5986L68.1213 40.6138C68.5152 40.2198 69.1061 40.2198 69.5 40.5153C69.894 40.9092 69.894 41.5001 69.5985 41.8941L68.7122 42.8789C68.5152 43.1744 68.3182 43.2729 68.0228 43.2729Z" fill="#0A9642"/>
<path d="M98.2576 87.5909H56.5C56.2045 87.5909 55.9091 87.4924 55.8106 87.2955C55.7121 87.0985 55.5151 86.803 55.5151 86.5076L58.7651 52.1364C58.7651 51.6439 59.2576 51.25 59.75 51.25H95.106C95.5985 51.25 95.9924 51.6439 96.0909 52.1364L99.2424 86.5076C99.2424 86.803 99.1439 87.0985 98.947 87.2955C98.75 87.4924 98.553 87.5909 98.2576 87.5909ZM57.5833 85.6212H97.1742L94.2197 53.2197H60.6363L57.5833 85.6212Z" fill="#0A9642"/>
<path d="M66.9394 87.591C66.3485 87.591 65.9546 87.0985 65.9546 86.6061L67.5303 52.9243C67.5303 52.3334 68.0228 51.9395 68.5152 51.9395C69.1061 51.9395 69.5 52.4319 69.5 52.9243L67.9243 86.6061C67.9243 87.197 67.4319 87.591 66.9394 87.591Z" fill="#0A9642"/>
<path d="M77.3788 87.591C76.7879 87.591 76.3939 87.197 76.3939 86.6061V52.9243C76.3939 52.3334 76.7879 51.9395 77.3788 51.9395C77.9697 51.9395 78.3636 52.3334 78.3636 52.9243V86.6061C78.3636 87.197 77.9697 87.591 77.3788 87.591Z" fill="#0A9642"/>
<path d="M87.8182 87.591C87.3257 87.591 86.8333 87.197 86.8333 86.6061L85.2576 52.9243C85.2576 52.3334 85.6515 51.9395 86.2424 51.9395C86.8333 51.9395 87.2273 52.3334 87.2273 52.9243L88.803 86.6061C88.803 87.0985 88.4091 87.591 87.8182 87.591Z" fill="#0A9642"/>
<path d="M96.6818 70.2578H58.1742C57.5833 70.2578 57.1893 69.8638 57.1893 69.2729C57.1893 68.682 57.5833 68.2881 58.1742 68.2881H96.6818C97.2727 68.2881 97.6666 68.682 97.6666 69.2729C97.6666 69.8638 97.2727 70.2578 96.6818 70.2578Z" fill="#0A9642"/>
<path d="M95.894 61.6894H58.9621C58.3712 61.6894 57.9773 61.2955 57.9773 60.7046C57.9773 60.1137 58.3712 59.7197 58.9621 59.7197H95.894C96.4849 59.7197 96.8788 60.1137 96.8788 60.7046C96.8788 61.2955 96.4849 61.6894 95.894 61.6894Z" fill="#0A9642"/>
<path d="M97.4697 78.7275H57.3863C56.7954 78.7275 56.4015 78.3336 56.4015 77.7427C56.4015 77.1518 56.7954 76.7578 57.3863 76.7578H97.4697C98.0606 76.7578 98.4545 77.1518 98.4545 77.7427C98.4545 78.3336 98.0606 78.7275 97.4697 78.7275Z" fill="#0A9642"/>
<path d="M77.3788 94.288C76.7879 94.288 76.3939 93.894 76.3939 93.3031V87.394C76.3939 86.8031 76.7879 86.4092 77.3788 86.4092C77.9697 86.4092 78.3636 86.8031 78.3636 87.394V93.3031C78.3636 93.894 77.9697 94.288 77.3788 94.288Z" fill="#0A9642"/>
<path d="M91.7576 99.0153H64.2803C63.8864 99.0153 63.4925 98.8184 63.394 98.4244C63.2955 98.0305 63.2955 97.6365 63.591 97.3411L68.3182 92.6138C68.5152 92.4168 68.7122 92.3184 69.0076 92.3184H85.75C85.947 92.3184 86.144 92.4168 86.341 92.5153L92.3485 97.2426C92.644 97.5381 92.841 97.932 92.644 98.3259C92.5455 98.7199 92.1516 99.0153 91.7576 99.0153ZM66.644 97.0456H88.9016L85.3561 94.2881H69.4016L66.644 97.0456Z" fill="#0A9642"/>
<path d="M44.8788 87.0002C42.0227 87.0002 39.7576 84.7351 39.7576 81.879V77.7427C39.7576 77.1518 40.1515 76.7578 40.7424 76.7578H49.0151C49.6061 76.7578 50 77.1518 50 77.7427V81.879C50 84.7351 47.7348 87.0002 44.8788 87.0002ZM41.7273 78.7275V81.879C41.7273 83.5533 43.2045 85.0305 44.8788 85.0305C46.6515 85.0305 48.0303 83.6517 48.0303 81.879V78.7275H41.7273Z" fill="#0A9642"/>
<path d="M42.909 78.7273C42.3181 78.7273 41.9242 78.3334 41.9242 77.7425V73.7046C41.9242 73.1137 42.3181 72.7197 42.909 72.7197C43.5 72.7197 43.8939 73.1137 43.8939 73.7046V77.7425C43.8939 78.3334 43.5 78.7273 42.909 78.7273Z" fill="#0A9642"/>
<path d="M46.8485 78.7273C46.2576 78.7273 45.8636 78.3334 45.8636 77.7425V73.7046C45.8636 73.1137 46.2576 72.7197 46.8485 72.7197C47.4394 72.7197 47.8333 73.1137 47.8333 73.7046V77.7425C47.8333 78.3334 47.4394 78.7273 46.8485 78.7273Z" fill="#0A9642"/>
<path d="M52.1666 96.6516C47.7348 96.6516 44.1893 93.1062 44.1893 88.6744V86.1138C44.1893 85.5228 44.5833 85.1289 45.1742 85.1289C45.7651 85.1289 46.159 85.5228 46.159 86.1138V88.6744C46.159 92.0228 48.8181 94.6819 52.1666 94.6819C55.5151 94.6819 58.1742 92.0228 58.1742 88.6744V86.6062C58.1742 86.0153 58.5681 85.6213 59.159 85.6213C59.7499 85.6213 60.1439 86.0153 60.1439 86.6062V88.6744C60.1439 93.1062 56.5984 96.6516 52.1666 96.6516Z" fill="#0A9642"/>
</svg>
