<svg width="140" height="140" viewBox="0 0 140 140" fill="none" xmlns="http://www.w3.org/2000/svg">
<circle cx="70" cy="70" r="70" fill="white"/>
<circle cx="70" cy="70" r="63.5" fill="white" stroke="#0A9642" stroke-width="3"/>
<g clip-path="url(#clip0_284_71)">
<path d="M102 70.5C102 52.5799 87.4201 38 69.5 38C63.8817 38 58.4081 39.4552 53.5551 42.1935H49.5806V38H43.2903V51.3009C39.1806 56.8993 37 63.5251 37 70.5C37 88.4211 51.5799 103 69.5 103C73.4933 103 77.3912 102.282 81.0868 100.871C83.1961 102.212 85.6913 103 88.371 103C91.6398 103 94.8018 101.825 97.2739 99.6913L95.9036 98.104C93.8121 99.9094 91.1377 100.903 88.371 100.903C82.0125 100.903 76.8387 95.7294 76.8387 89.371C76.8387 83.0125 82.0125 77.8387 88.371 77.8387C94.7294 77.8387 99.9032 83.0125 99.9032 89.371C99.9032 92.0286 99.0247 94.5269 97.3609 96.5954L98.9953 97.9101C100.933 95.4998 102 92.4679 102 89.371C102 86.6892 101.211 84.194 99.8686 82.0836C101.279 78.387 102 74.4933 102 70.5ZM53.7742 48.4839H55.871V50.5806V63.1613H53.7742V48.4839ZM49.5806 44.2903H51.6774V46.3871V63.1613H49.5806V44.2903ZM45.3871 40.0968H47.4839V42.1935V63.1613H45.3871V40.0968ZM68.4516 100.877C52.5203 100.333 39.6671 87.4797 39.123 71.5484H68.4516V100.877ZM68.4516 69.4516H39.1387C39.3096 64.3481 40.727 59.471 43.2903 55.1233V65.2581H47.4839H49.5806H51.6774H53.7742H55.871H57.9677H60.0645H62.1613H66.3548V54.7742H62.1613V50.5806H57.9677V46.3871H53.7742V44.4916C58.2099 41.8035 63.2506 40.3117 68.4516 40.1335V69.4516ZM57.9677 63.1613V52.6774H60.0645V54.7742V63.1613H57.9677ZM62.1613 63.1613V56.871H64.2581V63.1613H62.1613ZM99.877 69.4516H90.9018L98.6116 61.7418C99.3518 64.196 99.7858 66.7803 99.877 69.4516ZM94.5942 53.3589L82.8848 65.0683L84.3672 66.5507L95.7422 55.1757C96.5557 56.5638 97.2613 58.021 97.8505 59.5381L87.9369 69.4516H81.4663L82.8219 68.096L81.3394 66.6136L78.5014 69.4516H72.0308L91.7122 49.7702C92.7585 50.892 93.724 52.0893 94.5942 53.3589ZM70.5484 40.123C73.2197 40.2142 75.804 40.6482 78.2582 41.3884L70.5484 49.0982V40.123ZM70.5484 61.4985L83.2894 48.7575L81.807 47.2751L70.5484 58.5337V52.0631L80.4619 42.1495C81.979 42.7377 83.4362 43.4432 84.8243 44.2578L83.1353 45.9468L84.6177 47.4292L86.6411 45.4058C87.9107 46.276 89.108 47.2405 90.2298 48.2878L70.5484 67.9692V61.4985ZM88.371 75.7419C80.8561 75.7419 74.7419 81.8561 74.7419 89.371C74.7419 93.3139 76.4351 96.8596 79.12 99.3506C76.3575 100.272 73.4839 100.781 70.5484 100.879V71.5484H99.8791C99.7806 74.4828 99.2679 77.3544 98.3474 80.1169C95.8564 77.433 92.3119 75.7419 88.371 75.7419Z" fill="#0A9642"/>
<path d="M62.473 76.0486L49.8922 88.6294L51.3748 90.112L63.9556 77.5313L62.473 76.0486Z" fill="#0A9642"/>
<path d="M61.1129 84.1289C59.3789 84.1289 57.9678 85.54 57.9678 87.2741C57.9678 89.0081 59.3789 90.4192 61.1129 90.4192C62.847 90.4192 64.2581 89.0081 64.2581 87.2741C64.2581 85.54 62.847 84.1289 61.1129 84.1289ZM61.1129 88.3225C60.5353 88.3225 60.0645 87.8528 60.0645 87.2741C60.0645 86.6954 60.5353 86.2257 61.1129 86.2257C61.6906 86.2257 62.1613 86.6954 62.1613 87.2741C62.1613 87.8528 61.6906 88.3225 61.1129 88.3225Z" fill="#0A9642"/>
<path d="M52.7258 75.7417C50.9918 75.7417 49.5807 77.1528 49.5807 78.8869C49.5807 80.6209 50.9918 82.032 52.7258 82.032C54.4599 82.032 55.871 80.6209 55.871 78.8869C55.871 77.1528 54.4599 75.7417 52.7258 75.7417ZM52.7258 79.9352C52.1482 79.9352 51.6775 79.4656 51.6775 78.8869C51.6775 78.3082 52.1482 77.8385 52.7258 77.8385C53.3035 77.8385 53.7742 78.3082 53.7742 78.8869C53.7742 79.4656 53.3035 79.9352 52.7258 79.9352Z" fill="#0A9642"/>
<path d="M88.3709 88.3226C87.2145 88.3226 86.2741 87.3822 86.2741 86.2259C86.2741 85.0695 87.2145 84.1291 88.3709 84.1291C89.5273 84.1291 90.4677 85.0695 90.4677 86.2259H92.5645C92.5645 84.2769 91.2225 82.6498 89.4193 82.1812V79.9355H87.3225V82.1812C85.5193 82.6498 84.1774 84.2769 84.1774 86.2259C84.1774 88.5386 86.0582 90.4194 88.3709 90.4194C89.5273 90.4194 90.4677 91.3598 90.4677 92.5162C90.4677 93.6726 89.5273 94.613 88.3709 94.613C87.2145 94.613 86.2741 93.6726 86.2741 92.5162H84.1774C84.1774 94.4651 85.5193 96.0922 87.3225 96.5609V98.8065H89.4193V96.5609C91.2225 96.0922 92.5645 94.4651 92.5645 92.5162C92.5645 90.2035 90.6837 88.3226 88.3709 88.3226Z" fill="#0A9642"/>
<path d="M97.8065 88.3228H95.7097V90.4195H97.8065V88.3228Z" fill="#0A9642"/>
<path d="M81.0322 88.3228H78.9354V90.4195H81.0322V88.3228Z" fill="#0A9642"/>
</g>
<defs>
<clipPath id="clip0_284_71">
<rect width="65" height="65" fill="white" transform="translate(37 38)"/>
</clipPath>
</defs>
</svg>
